<svg xmlns="http://www.w3.org/2000/svg" viewBox="0 0 80 80.63">
    <defs>
        <style>
            .cls-1{fill:#09bb07;}.cls-2,.cls-3{fill:#fff;}.cls-2{opacity:0.9;isolation:isolate;}.cls-4{fill:#d43634;}.cls-5{fill:#034582;}.cls-6{fill:#107c84;}
        </style>
    </defs>
    <title>资源 3</title>
    <g id="图层_2" data-name="图层 2">
        <g id="图层_1-2" data-name="图层 1">
            <circle class="cls-1" cx="40" cy="40" r="40"/>
            <path class="cls-2"
                  d="M33.2,45.7a1.88,1.88,0,0,1-.8.2,1.65,1.65,0,0,1-1.5-.9l-.1-.2L26.2,35a.37.37,0,0,1-.1-.3.74.74,0,0,1,.8-.8c.2,0,.3.1.5.2l5.4,3.8a3.26,3.26,0,0,0,1.4.4,2.92,2.92,0,0,0,.9-.2L60.4,27c-4.5-5.3-12-8.7-20.5-8.7-13.8,0-25,9.2-25,20.6,0,6.2,3.4,11.8,8.6,15.6a1.71,1.71,0,0,1,.7,1.3c0,.2-.1.3-.1.5-.4,1.5-1.1,4.1-1.1,4.2a1.27,1.27,0,0,0-.1.6.74.74,0,0,0,.8.8c.2,0,.3-.1.5-.2l5.4-3.1a3.26,3.26,0,0,1,1.3-.4c.2,0,.5.1.8.1a30.66,30.66,0,0,0,8.2,1.1c13.8,0,25-9.2,25-20.6a18.19,18.19,0,0,0-2.8-9.6L33.3,45.6l-.1.1Z"/>
            <path class="cls-3"
                  d="M70.82,80.63,39.38,80.5a2,2,0,0,1-2-2.54l4.81-21.29a3.28,3.28,0,0,1,3.17-2.41l31.44.13a2,2,0,0,1,2,2.53L74,78.22A3.55,3.55,0,0,1,70.82,80.63Z"/>
            <path class="cls-4"
                  d="M47.37,77.33l2.92-12.55h-.13a.46.46,0,0,0-.38.13c0,.25-.25,1-.25,1.27a8,8,0,0,1-.26,1.14H48l.26-1.14c.25-1.14.25-1.53.38-2h0c.51-.13.76-.13,1.39-.26h0l-.12.38a.27.27,0,0,0,.25-.25.37.37,0,0,0,.25-.13l1.52-6.33A3.25,3.25,0,0,1,55,55H45.85a3.24,3.24,0,0,0-3,2.54l-4.57,19.9A2,2,0,0,0,40.15,80h9.12a2.1,2.1,0,0,1-1.9-2.66Zm-.89-10.39a4.07,4.07,0,0,1-1.77.38c-.51,0-1.52-.13-1.78-.64-.12-.25-.25-.38-.25-.63l.13-.89v-.25l.76-3.3v-.25h1.65c-.13.38-.89,3.29-.89,3.29l-.13.89v.13c0,.38.26.63.76.63a1.71,1.71,0,0,0,.76-.25c.38-.25.51-.76.64-1.4,0,0,.76-3.16.76-3.29h1.39c-.13.38-.89,3.42-.89,3.42L47.5,65A2.11,2.11,0,0,1,46.48,66.94Z"/>
            <path class="cls-5"
                  d="M58.27,77.33,59,74H57.77a.28.28,0,0,1-.26-.26,1,1,0,0,1,.13-.51l1.52-5.07H60.3l-.13.51.13-.13.25-1.26h-.76a5.38,5.38,0,0,1,.13-.64v-.25a9.32,9.32,0,0,0,.25-1.14c0-.13,0-.38-.25-.38a.46.46,0,0,0-.38.13c0,.25-.25,1-.25,1.26A7.69,7.69,0,0,1,59,67.44H57.77L58,66.3c.25-1.14.25-1.52.38-2h0c.51-.12.76-.12,1.39-.25h0l-.12.38a.28.28,0,0,0,.25-.25,2.52,2.52,0,0,1,.76-.26,1,1,0,0,1,.51.13l1.39-6.34a3.28,3.28,0,0,1,3.17-2.53H54.85a3.24,3.24,0,0,0-3,2.53L50.41,64a1.38,1.38,0,0,1,.64-.13,1.13,1.13,0,0,1,.76.38c.12.26,0,.64-.13,1.27l-.13.38a8.92,8.92,0,0,0-.25,1.4l-.13.12H49.91a6,6,0,0,1,.12-.63v-.25a10.61,10.61,0,0,0,.26-1.14.45.45,0,0,0-.13-.38L47.24,77.58a2,2,0,0,0,1.91,2.54h10.9a2.28,2.28,0,0,1-1.78-2.79Zm.38-8.75-.25.76H56.62l-.25.13c-.13.13-.13,0-.25.13a2.64,2.64,0,0,1-.64.13H55l.25-.77h.38l.25-.25.26-.63h1.27l-.26.5ZM54,64.4l-.25,1a5.59,5.59,0,0,1-.13.63c-.12.51-.12.63-.25.76a1,1,0,0,1-.13.51H51.81c0-.26.12-.38.12-.51a1,1,0,0,1,.13-.51c.13-.38.13-.63.25-.88a2.9,2.9,0,0,1,.26-1c0-.13,0-.25.25-.51a1,1,0,0,1,1-.12c.25.25.25.5.12.63Zm.26,1.14a2,2,0,0,1,2.15-1.77c.51,0,1,.12,1.14.5a2.09,2.09,0,0,1,.13,1.4,2.81,2.81,0,0,1-.51,1.14,2.09,2.09,0,0,1-1.65.63,1.71,1.71,0,0,1-.76-.12A2,2,0,0,1,54.22,65.54ZM57,74H55.23a.41.41,0,0,1-.25-.13c0-.13-.13-.13-.13-.38l.38-1.4h-.76l.25-.76h.76l.26-.63H55l.25-.76H58.4l-.25.76H56.88l-.26.51h1.27l-.25.76H56.37l-.25,1c0,.13.25.13.5.13l.64-.13L57,74Z"/>
            <path class="cls-5"
                  d="M60.05,69l-.26.89a.42.42,0,0,0,.26-.12V69Zm-4.31-2.4c.12,0,.25-.13.38-.26a5.56,5.56,0,0,0,.25-.76c.13-.63.13-1-.25-1s-.51.51-.76,1c0,.26-.13.38-.13.51C55.48,66.56,55.74,66.56,55.74,66.56Zm3.17,6.33v.26l.12.12h.13l.51-1.9h-.26Zm.88-2.78-.12.38h.25l.13-.38Z"/>
            <path class="cls-6"
                  d="M68.16,66.56a1,1,0,0,0,.51-.26l.12-.25c0-.13.13-.38.13-.51v-.25c0-.38-.13-.64-.38-.64s-.51.51-.76,1c0,.25-.13.38-.13.51C67.91,66.56,68.16,66.56,68.16,66.56Zm-6.72,3.93.13-.38H59.92l-.13.38h1.4C61.44,70.49,61.44,70.61,61.44,70.49Z"/>
            <path class="cls-6"
                  d="M75.89,55H66a3.5,3.5,0,0,0-3.16,2.54l-1.4,6.33a.27.27,0,0,1,.25.26c.13.25,0,.63-.12,1.27l-.13.38a7.8,7.8,0,0,0-.25,1.39h-.51l-.25,1.27c.12-.13.25-.26.38-.26a5.56,5.56,0,0,1,.76-.25h1.77l-.63,2.16c-.13.38-.25.5-.25.63a.27.27,0,0,1-.26.25.45.45,0,0,1-.38.13h-2l-.5,1.9h.63l-.25.89h-.51L58.4,77.2a2,2,0,0,0,1.9,2.54h9.89a3.51,3.51,0,0,0,3.17-2.54l4.56-19.77a2.11,2.11,0,0,0-2-2.41Zm-7.1,8.75a1.57,1.57,0,0,1,.51.38V64h0c.63-.13.76-.13,1.39-.25h0c-.12.5-.25,1-.38,1.39-.25,1-.25,1.52-.38,2H68.67v-.25c-.26.12-.38.25-.64.25a1.59,1.59,0,0,1-.76-.13c-.76-.25-.63-1.14-.5-1.64a2,2,0,0,1,.63-1.27A1.65,1.65,0,0,1,68.79,63.77ZM62,67.32l1-3.93.38-1.78v-.25H65.5c.89,0,1.52,0,1.9.51a1.71,1.71,0,0,1,.25.76v.5a2.46,2.46,0,0,1-1,1.52,4.14,4.14,0,0,1-2.41.51H64.1l-.12.13-.26.76a10.89,10.89,0,0,0-.25,1.27Zm.38,4.56c0,.13-.13.25-.25.38a.75.75,0,0,1-.64.25h-.63v.64h1l-.25.89h-.64a2.12,2.12,0,0,1-1-.13c-.13,0-.13-.13-.13-.26V71.5h1V72h.5c.13,0,0,0,0-.13l.13-.38h.89ZM66,74H64.86l.13-.26H62.71L63,73h.26L64.36,69l.25-.76h1.14l-.13.38a1,1,0,0,1,.64-.25c.25,0,1.39-.13,1.9-.13h1.27v.51c0,.13,0,.13.25.13h.25l-.25.76h-.63c-.64,0-.76-.26-.76-.51v-.51L68,69h-.38L66.51,73h.26l-.26.76h-.38L66,74Zm5.2-3.55H69.93l-.25.63H71l-.25.63H69.3l-.25.26h.5l.13.88v.26h.38l-.25.89h-.76c.25,0,.25-.13.12-.13a.28.28,0,0,1-.25-.26l-.13-.88-.63.88a1.26,1.26,0,0,1-.89.51h-.88l.25-.76h.63a.4.4,0,0,0,.26-.13L68.41,72H67.27l.26-.76h1.39l.25-.64H67.78l.25-.76h3.81l-.64.64ZM72,68.08h0l-.5.88a1.06,1.06,0,0,1-.89.51h-.76l.25-.76h.38l.13-.13.25-.5c.38-.64.51-.89.89-1.52,0-.76-.13-1-.13-1.4s-.12-.63-.12-.89a1.57,1.57,0,0,0-.13-.88h0a4.49,4.49,0,0,0,1.27-.26h0l.12,1.65v.13a8.55,8.55,0,0,0,.76-1.52h0a5.41,5.41,0,0,0,1.27-.26h0c.13,0-2.41,4.31-2.79,4.95Z"/>
            <path class="cls-6"
                  d="M61.82,69.47,62,69H60.3l-.13.77a1.81,1.81,0,0,1,.76-.26Zm3.42-5.32a1,1,0,0,0,.64-.89c.12-.51,0-.76-.38-.89h-1v.13l-.25,1.65v.12h.25a1.67,1.67,0,0,0,.76-.12ZM64.36,73h1l.25-.89h-1ZM65.5,69l-.26,1a2,2,0,0,0,.51-.25h.51l.25-.77Zm-.76,2.54a1.91,1.91,0,0,1,.5-.25,1.27,1.27,0,0,0,.51-.13l.25-.76H65l-.25,1.14Z"/>
        </g>
    </g>
</svg>
