<?xml version="1.0" encoding="utf-8"?>
<!-- Generator: Adobe Illustrator 24.0.3, SVG Export Plug-In . SVG Version: 6.00 Build 0)  -->
<svg version="1.1" id="图层_1" xmlns="http://www.w3.org/2000/svg" xmlns:xlink="http://www.w3.org/1999/xlink" x="0px" y="0px"
	 viewBox="0 0 32 32" style="enable-background:new 0 0 32 32;" xml:space="preserve">
<style type="text/css">
	.st0{fill:url(#SVGID_1_);}
	.st1{fill:#6A3E00;}
	.st2{fill:url(#SVGID_2_);}
	.st3{fill:url(#SVGID_3_);}
	.st4{fill:url(#SVGID_4_);}
	.st5{fill:url(#SVGID_5_);}
	.st6{fill:#552800;}
	.st7{fill:url(#SVGID_6_);}
	.st8{fill:url(#SVGID_7_);}
	.st9{fill:url(#SVGID_8_);}
	.st10{fill:#552800;fill-opacity:0;}
</style>
<title>威尼斯</title>
<g id="图层_2_1_">
	<g id="图层_1-2">
		
			<linearGradient id="SVGID_1_" gradientUnits="userSpaceOnUse" x1="8.495" y1="3.47" x2="8.495" y2="32.71" gradientTransform="matrix(1 0 0 -1 0 34)">
			<stop  offset="0" style="stop-color:#FFE378"/>
			<stop  offset="0.45" style="stop-color:#FFE378"/>
			<stop  offset="1" style="stop-color:#CC7E00"/>
		</linearGradient>
		<path class="st0" d="M15.9,1.2c-0.7,0.2-1.7,0.5-2.7,0.7C12.4,2.5,11.7,3,11,3.7c-0.2,0.2-0.7,0.5-0.7,0.7c-0.2,1,0.2,1-0.2,1.2
			s-1,0-1.5,0S7.8,5.4,7.4,5.4C6.2,4.9,4,4.1,2.8,5.3C2.1,6,1.7,6.9,1.6,7.8C1.3,8.3,1.1,8.5,1.1,9c0.2,0.5,0.2,0.7,0.5,1
			c0.3,0.3,0.8,0.5,1.2,0.5c0.5,0,0.7-0.2,1,0.2C4,11.2,4,11.7,4,12.1c-0.2,0.2-0.2,0.2-0.5,0.2c-0.7,0.3-1.2,0.9-1.2,1.7
			c0.3,0.8,0.9,1.4,1.7,1.7c0.5,0.2,0.7,0,1.2-0.2s0.5,0.2,0.7,0.5c0.2,0.4,0.3,0.8,0.2,1.2v1.5c0.1,1.7,0.6,3.4,1.5,4.9
			c0.5,0.6,1.1,1.2,1.7,1.7c0.5,0.5,1.2,1.2,1.2,1.9c-0.2,0-0.2-0.2-0.5-0.5s-0.2-0.2-0.5-0.2c-0.2-0.2-0.7,0-1,0.2
			c-0.5,0.4-0.7,1.1-0.5,1.7c0.2,0.8,0.6,1.5,1.2,1.9c0.7,0.4,1.6,0.5,2.4,0.2c0.7-0.3,1.4-0.7,2-1.2c0.5-0.5,1,0.2,1.4,0.7
			c0.2,0.1,0.5,0.2,0.7,0.3L15.9,1.2L15.9,1.2z"/>
		<path class="st1" d="M11.1,7.6L11,7.5C11,7.5,10.9,7.7,11.1,7.6z"/>
		<path class="st1" d="M9,7.2c0.2,0,0.3,0.1,0.5,0.1C9.3,7.2,9.2,7.2,9,7.2z"/>
		<path class="st1" d="M6.7,21.6c0.1,0.2,0.2,0.5,0.3,0.8c-0.3-0.6-0.4-1.3-0.6-2C6.5,20.8,6.5,21.2,6.7,21.6z"/>
		<path class="st1" d="M13.2,29.8c0.1,0,0.2,0,0.3,0.1c0.3-0.1,0.5-0.3,0.6-0.6c-0.1,0-0.2,0.1-0.3,0.1L13.2,29.8z"/>
		<path class="st1" d="M9.6,29.6c-0.8-0.5-1.1-1.5-0.7-2.4c0.5-0.7,1.5-0.2,1.9,0.5c-0.5,0.1-0.8,0.5-0.7,0.9c0,0.2,0.1,0.4,0.3,0.5
			c0.5,0.2,1-0.1,1.2-0.6c0,0,0-0.1,0-0.1c0-0.2-0.2-0.5-0.2-0.7C11,27.2,11,27,10.8,26.5c-0.4-0.7-1-1.3-1.7-1.7
			c-0.5-0.5-1.2-0.7-1.4-1.5C7.4,23,7.2,22.7,7,22.4c0.2,0.4,0.4,0.8,0.6,1.2c0.5,0.6,1.1,1.2,1.7,1.7c0.5,0.5,1.2,1.2,1.2,1.9
			c-0.2,0-0.2-0.2-0.5-0.5s-0.2-0.2-0.5-0.2c-0.2-0.2-0.7,0-1,0.2c-0.5,0.4-0.7,1.1-0.5,1.7c0.2,0.8,0.6,1.5,1.2,1.9
			c0.7,0.4,1.6,0.5,2.4,0.2c0.5-0.2,1-0.5,1.4-0.8c-0.2,0-0.5,0.1-0.7,0.1C11.5,30.1,10.5,30.1,9.6,29.6z"/>
		<path class="st1" d="M15.9,29.1c-0.2-0.2-0.2-0.5-0.5-0.5c-0.2-0.2-0.2,0.2-0.5,0.2s-0.2-0.2-0.5-0.2c-0.2-0.2-0.2-0.2-0.2,0.2
			L14,29.2c0.4,0,0.8,0.5,1.1,0.9c0.2,0.1,0.5,0.2,0.7,0.3C15.9,30.5,15.9,29.1,15.9,29.1z"/>
		
			<linearGradient id="SVGID_2_" gradientUnits="userSpaceOnUse" x1="2.515" y1="3257.04" x2="2.515" y2="3258.3999" gradientTransform="matrix(1 0 0 1 0 -3250.0801)">
			<stop  offset="0" style="stop-color:#FFBB6C"/>
			<stop  offset="1" style="stop-color:#8C4100"/>
		</linearGradient>
		<path class="st2" d="M3,7.1C2.8,6.8,2.5,7.3,2.5,7.5C2.3,7.8,2,8,2,8.3C2,8.8,2.3,8,2.5,8C2.5,7.8,2.8,7.5,3,7.1z"/>
		
			<linearGradient id="SVGID_3_" gradientUnits="userSpaceOnUse" x1="3.015" y1="3257.3501" x2="3.015" y2="3259.02" gradientTransform="matrix(1 0 0 1 0 -3250.0801)">
			<stop  offset="0" style="stop-color:#FFBB6C"/>
			<stop  offset="1" style="stop-color:#8C4100"/>
		</linearGradient>
		<path class="st3" d="M3,7.5C2.6,7.8,2.4,8.3,2.3,8.8C2.3,9.2,3,9,3,9c0.3-0.4,0.5-0.8,0.7-1.2C3.5,7.5,3.5,7.3,3,7.5z"/>
		
			<linearGradient id="SVGID_4_" gradientUnits="userSpaceOnUse" x1="14.6646" y1="3276.1899" x2="14.6646" y2="3277.6201" gradientTransform="matrix(1 0 0 1 0 -3250.0801)">
			<stop  offset="0" style="stop-color:#FFBB6C"/>
			<stop  offset="1" style="stop-color:#8C4100"/>
		</linearGradient>
		<path class="st4" d="M15.2,26.5l-0.2-0.2c-0.2-0.2-0.2,0.2-0.5,0.2c-0.2,0.2-0.2,0.2-0.5,0c-0.2,0.2,0.2,1,0.5,1.2s0.2,0,0.2-0.2
			l0.5-0.5C15.6,26.5,15.4,26.7,15.2,26.5z"/>
		
			<linearGradient id="SVGID_5_" gradientUnits="userSpaceOnUse" x1="-1815.325" y1="3.47" x2="-1815.325" y2="32.71" gradientTransform="matrix(-1 0 0 -1 -1792.04 34)">
			<stop  offset="0" style="stop-color:#FFE378"/>
			<stop  offset="0.45" style="stop-color:#FFE378"/>
			<stop  offset="1" style="stop-color:#CC7E00"/>
		</linearGradient>
		<path class="st5" d="M15.9,1.2c0.7,0.2,1.7,0.5,2.7,0.7C19.3,2.5,20,3,20.7,3.7c0.2,0.2,0.7,0.5,0.7,0.7c0.2,1-0.2,1,0.2,1.2
			s1,0,1.5,0s0.7-0.2,1.2-0.2c1.2-0.5,3.4-1.2,4.6,0c0.7,0.6,1.1,1.5,1.2,2.4c0.2,0.5,0.5,0.7,0.5,1.2c-0.2,0.5-0.2,0.7-0.5,1
			c-0.3,0.3-0.8,0.5-1.2,0.5c-0.5,0-0.7-0.2-1,0.2c-0.2,0.5-0.3,1-0.2,1.5c0.2,0.2,0.2,0.2,0.5,0.2c0.7,0.3,1.2,0.9,1.2,1.7
			c-0.3,0.8-0.9,1.4-1.7,1.7c-0.5,0.2-0.7,0-1.2-0.2s-0.5,0.2-0.7,0.5c-0.2,0.4-0.3,0.8-0.2,1.2v1.5c-0.1,1.7-0.6,3.4-1.5,4.9
			c-0.5,0.6-1.1,1.2-1.7,1.7c-0.5,0.5-1.2,1.2-1.2,1.9c0.2,0,0.2-0.2,0.5-0.5s0.2-0.2,0.5-0.2c0.2-0.2,0.7,0,1,0.2
			c0.5,0.4,0.7,1.1,0.5,1.7c-0.2,0.8-0.6,1.5-1.2,1.9c-0.7,0.4-1.6,0.5-2.4,0.2c-0.7-0.3-1.3-0.7-1.9-1.2c-0.5-0.5-1,0.2-1.5,0.7
			c-0.2,0.1-0.5,0.2-0.7,0.3C15.9,30.5,15.9,1.2,15.9,1.2z"/>
		<path class="st1" d="M20.6,7.6l0.1-0.1C20.7,7.5,20.9,7.7,20.6,7.6z"/>
		<path class="st1" d="M22.8,7.2c-0.2,0-0.3,0.1-0.5,0.1C22.4,7.2,22.6,7.2,22.8,7.2z"/>
		<path class="st1" d="M25.1,21.6c-0.1,0.2-0.2,0.5-0.4,0.8c0.3-0.6,0.4-1.3,0.6-2C25.3,20.8,25.2,21.2,25.1,21.6z"/>
		<path class="st1" d="M18.6,29.8c-0.1,0-0.2,0-0.3,0.1c-0.3-0.1-0.5-0.3-0.6-0.6c0.1,0,0.2,0.1,0.3,0.1
			C18.3,29.5,18.4,29.6,18.6,29.8z"/>
		<path class="st1" d="M22.2,29.6c0.8-0.5,1.1-1.5,0.7-2.4c-0.5-0.7-1.5-0.2-1.9,0.5c0.5,0.1,0.8,0.5,0.7,0.9c0,0.2-0.1,0.4-0.3,0.5
			c-0.5,0.2-1-0.1-1.2-0.6c0,0,0-0.1,0-0.2c0-0.2,0.2-0.5,0.2-0.7c0.2-0.5,0.2-0.7,0.5-1.2c0.4-0.7,1-1.3,1.7-1.7
			c0.5-0.5,1.2-0.7,1.5-1.5c0.3-0.3,0.5-0.6,0.6-1c-0.2,0.4-0.4,0.8-0.6,1.2c-0.5,0.6-1.1,1.2-1.7,1.7c-0.5,0.5-1.2,1.2-1.2,1.9
			c0.2,0,0.2-0.2,0.5-0.5s0.2-0.2,0.5-0.2c0.2-0.2,0.7,0,1,0.2c0.5,0.4,0.7,1.1,0.5,1.7c-0.2,0.8-0.6,1.5-1.2,1.9
			c-0.7,0.4-1.6,0.5-2.5,0.2c-0.5-0.2-1-0.5-1.4-0.8c0.2,0,0.5,0.1,0.7,0.1C20.2,30.2,21.3,30.1,22.2,29.6z"/>
		<path class="st1" d="M15.9,29.1c0.2-0.2,0.2-0.5,0.5-0.5c0.2-0.2,0.2,0.2,0.5,0.2s0.2-0.2,0.5-0.2c0.2-0.2,0.2-0.2,0.2,0.2
			l0.1,0.3c-0.4,0-0.8,0.5-1.1,0.9c-0.2,0.1-0.5,0.2-0.7,0.3L15.9,29.1L15.9,29.1z"/>
		<path class="st1" d="M13.2,2c-0.8,0.5-1.5,1-2.2,1.7c-0.2,0.2-0.7,0.5-0.7,0.7c-0.2,1,0.2,1-0.2,1.2s-1,0-1.5,0S7.8,5.4,7.4,5.4
			C6.2,4.9,4,4.1,2.8,5.3C2.1,6,1.7,6.9,1.6,7.8C1.3,8.3,1.1,8.5,1.1,9c0.2,0.5,0.2,0.7,0.5,1c0.3,0.3,0.8,0.5,1.2,0.5
			c0.5,0,0.7-0.2,1,0.2C4,11.2,4,11.7,4,12.1c-0.2,0.2-0.2,0.2-0.5,0.2c-0.7,0.3-1.2,0.9-1.2,1.7c0.3,0.8,0.9,1.4,1.7,1.7
			c0.5,0.2,0.7,0,1.2-0.2s0.5,0.2,0.7,0.5c0.2,0.4,0.3,0.8,0.2,1.2v1.5c0.1,0.5,0.2,1.1,0.3,1.6c0-0.3,0-0.6,0-0.9
			c0-0.5-0.2-2.2,0.2-2.2c0.2,0,0.2,0.2,0.5,0.2s0.5,0,0.5,0.2c0.2,0.2-0.2,0.7-0.2,0.7C7.1,19,7,19.6,6.9,20.2
			c0.1,1.3,0.7,2.6,1.7,3.4c1.3,0.8,2.3,2,2.9,3.4c0.2,0.5,0.2,0.7,0.5,1.2c0.2,0.2,0.2,0.5,0.5,0.2c0.4-0.3,0.4-0.9,0-1.3
			c-0.1-0.1-0.2-0.1-0.2-0.2c-0.2-0.2-0.5-0.2-0.5-0.5c0.2-0.2,0.5-0.3,0.7-0.2c0.2,0,0.5,0.2,0.7,0.2c0.2-0.2,0.2-0.5,0.2-0.7
			c0.2-0.2,0.2-0.5,0.7-0.2c0.2,0.2,0.5,0.5,0.5,0.7c0.2,0.2,0,0.5,0.2,0.5s0.2-0.2,0.5-0.2s0.2,0.2,0.5,0.2
			c-0.4,0.4-0.7,0.9-0.7,1.5c0,0.2,0.4,0.5,0.7,0.6v-5l0,0c-0.2-0.2-0.5-0.7-0.7-0.7c-0.5-0.2-0.5,0.2-0.7,0.5
			c-0.2-0.5-0.2-1-0.5-1.5c-0.5-0.5-1-0.7-1.5-1.2c-0.4-0.2-0.8-0.6-1-1c0-0.2,0.2-1.2-0.2-1.5c-0.2-0.2-0.5,0.2-0.7,0.2
			c-0.2,0.2-0.2,0-0.2-0.5v-0.7c-0.2-0.2-0.2,0-0.5,0c-0.1-0.1-0.2-0.3-0.2-0.5c-0.3,0-0.5,0.2-0.5,0.5c-0.1,0.5-0.4,0.9-0.7,1.2
			c0-0.9,0.3-1.7,0.7-2.4c0.7-0.5,0.7-1.4,0.5-2.4c-0.2-0.5-0.5-0.7-0.7-0.7c-0.2-0.2-0.7,0.2-1,0c-0.7-0.5-0.2-1.7-0.2-2.4
			c0.3-0.8,0.5-1.6,0.5-2.4V7.5c0-0.2,0.7,0,0.7-0.2c0,0,0.1-0.1,0.2-0.1c-0.1,0-0.3-0.1-0.4-0.2c-0.2,0-1.7-0.7-1.9-0.5
			c0,0.2,0.1,0.4,0.2,0.5c0,0.2,0.1,0.4,0.2,0.5c0,0.5,0,1-0.2,1.5c-0.3,0.8-0.4,1.6-0.5,2.4c-0.2,0.8-0.1,1.7,0.2,2.4
			c0.2,0.5,0.5,0.7,0.7,1.2c0.5,0.2,0.2-0.2,0.5-0.5s0.5-0.5,0.7,0c0.3,0.4,0.2,0.9-0.2,1.2c0,0,0,0,0,0c-0.5,0.7-1.5,0.2-1.9-0.2
			c-0.3-0.6-0.6-1.3-0.7-2c-0.2-1-0.1-2,0.2-2.9c0.3-1,0.1-2.1-0.5-2.9C5.3,7.5,5.2,7.3,5.2,7c0-0.2,0.2-0.2,0.2-0.5
			c0-0.4-0.2-0.7-0.5-0.7c-0.1,0-0.1,0-0.2,0c-0.4-0.2-1,0-1.2,0.4c0,0,0,0.1,0,0.1C3.3,6.5,3.3,7.3,3.8,7c0-0.5,0.3-1.2,0.7-0.5
			c0.2,0.2,0.5,0.7,0.2,1C4.5,8,4,8.5,3.8,9c-0.2,0.2-0.5,0.7-1,0.7C2,10,1.3,9.2,1.5,8.3c0.2-0.5,0.5-1,0.7-1.4
			c0.2-0.5,0.5-0.9,1-1.2C4,5.2,4.9,5.1,5.7,5.3c0.8,0.4,1.6,0.6,2.4,0.7c0.4,0.1,0.8,0.1,1.2,0.2c0.5-0.2,0.7-0.5,1,0.2
			c0.2,0.5,0.2,0.7-0.5,0.7H9.6c0.4,0.2,0.8,0.3,1.2,0.2h0.7c-0.1,0.1-0.2,0.1-0.4,0.1l0.6,0.6c0.5,0.5,0.5,0.2,0.5-0.5
			c0.2-0.5,0.5-0.5,0.7-0.5C13.2,7,13.2,7,13.5,7c0.2,0.2,0.2,0.5,0.5,0.5c0.2,0.2,0.5,0.5,0.5,0.2s0-0.2,0.2-0.2
			c0.1-0.1,0.3-0.2,0.5-0.2c0.2-0.2,0.5-0.3,0.7-0.4V5.1l0,0V3c-0.1,0.2,0,0.5,0,0.7c0,0.5-0.2,1.2-0.2,1.5c-0.2,0.5-0.5,0.5-1,0.5
			c-0.2,0-0.5-0.2-0.5,0.2c-0.2,0.2,0.2,0.5,0.2,0.5l-0.2,0.5c-0.2,0.2-0.2,0.2-0.2,0c-0.5-0.2-0.2-0.7-0.2-1.2
			c0.2-0.5,0.4-1,0.5-1.4c0.1-0.1,0.2-0.3,0.2-0.5l0.5-0.5c0.2-0.5-0.5-0.2-0.7,0s-0.2,0.7-0.5,1.2c-0.2,0.4-0.4,0.7-0.7,1
			c-0.2,0.2-0.2,0.2-0.5,0.2S12,5.6,12,5.9c-0.2,0.2,0.2,0.5,0,0.7s-0.5,0.7-0.7,0.5c-0.5-0.8-0.5-1.8,0-2.7c0.2-0.2,0.7-0.5,1.2-1
			l0.7-0.7C14,2.3,14.8,2.1,15.6,2l0.2-0.1V1.2l0,0C15.2,1.5,14.2,1.7,13.2,2z M8.9,20.6c0.2-0.2,0-2.2,0.5-1.9c0,0.2-0.2,0.5,0,0.5
			c0.1,0,0.2-0.1,0.2-0.2c0,0,0,0,0,0c0,0.5-0.2,1.5,0.5,1.7c0.2-0.2,0.5-0.7,0.7-0.7c0,0.7-0.2,1.2,0.2,1.9c0.2,0.2,0.5,1.5,1,1.2
			s-0.5-1,0.2-0.7c0.5,0.2,1.2,0.7,1.2,1.2c0.2,0.2,0.5,1.5,0,1.5c-0.2,0-0.5-0.5-0.5-0.5c-0.2-0.2-0.5-0.5-0.7-0.5
			c-0.2-0.2-0.7,0-1-0.2c-0.2,0-0.5-0.2-0.7-0.2c-0.6-0.2-1-0.7-1.2-1.2h0.5c-0.3-0.3-0.5-0.6-0.7-1c-0.3-0.3-0.5-0.8-0.5-1.2
			C8.9,20.4,8.9,20.4,8.9,20.6z M4.7,11.6c0-0.7-0.2-1.5-0.5-2.2c1.2,0,1.2,1.4,1.2,2.4c-0.2,0.7,0.2,2.7-1,2.7
			c-0.7,0-1.9-0.7-1.5-1.7c0.2-0.5,0.7-0.5,1.2-0.5c0.2,0.2,0.2,0.2,0.5,0S4.7,11.9,4.7,11.6L4.7,11.6z"/>
		<path class="st1" d="M29,10.4c0.4,0,0.9-0.2,1.2-0.4c0.2-0.2,0.2-0.5,0.5-1c0-0.5-0.2-0.7-0.5-1.2C30.1,6.9,29.7,6,29,5.3
			c-1.2-1.2-3.4-0.5-4.6,0c-0.5,0-0.7,0.2-1.2,0.2s-1,0.2-1.5,0s0-0.2-0.2-1.2c0-0.2-0.5-0.5-0.7-0.7C20.1,3,19.3,2.5,18.5,2
			c-1-0.2-1.9-0.5-2.7-0.7l0,0v0.6L16.1,2c0.8,0.1,1.7,0.3,2.4,0.7C18.8,3,19,3.2,19.3,3.5c0.5,0.5,1,0.7,1.2,1
			c0.5,0.8,0.5,1.8,0,2.7c-0.2,0.2-0.5-0.2-0.7-0.5s0.2-0.5,0-0.7c0-0.2-0.2-0.2-0.5-0.2s-0.2,0-0.5-0.2c-0.3-0.3-0.6-0.6-0.7-1
			c-0.2-0.5-0.2-1-0.5-1.2s-1-0.5-0.7,0l0.5,0.5c0,0.2,0.1,0.4,0.2,0.5c0.1,0.5,0.3,1,0.5,1.5c0,0.5,0.2,1-0.2,1.2
			c0,0.2,0,0.2-0.2,0l-0.2-0.5c0,0,0.5-0.2,0.2-0.5c0-0.5-0.2-0.2-0.5-0.2c-0.5,0-0.7,0-1-0.5c0-0.2-0.2-1-0.2-1.5
			c0-0.2,0.1-0.5,0-0.6v2.1l0,0v1.7c0.3,0.1,0.5,0.2,0.7,0.4c0.2,0,0.4,0.1,0.5,0.2c0.2,0,0.2,0,0.2,0.2c0,0.2,0.2,0,0.5-0.2
			C18,7.5,18,7.3,18.3,7c0.2,0,0.2,0,0.5,0.2c0.2,0,0.5,0,0.7,0.5c0,0.7,0,1,0.5,0.5l0.6-0.6c-0.1,0-0.3-0.1-0.4-0.1H21
			c0.4,0,0.8-0.1,1.2-0.2h0.1l-0.3,0c-0.7,0-0.7-0.2-0.5-0.7c0.2-0.7,0.5-0.5,1-0.2c0.4-0.1,0.8-0.2,1.2-0.2
			c0.8-0.1,1.7-0.4,2.4-0.7c0.8-0.3,1.7-0.2,2.4,0.2c0.5,0.3,0.8,0.7,1,1.2c0.2,0.5,0.5,1,0.7,1.5c0.2,1-0.5,1.7-1.2,1.4
			c-0.5,0-0.7-0.5-1-0.7c-0.2-0.5-0.7-1-1-1.5c-0.2-0.2,0-0.7,0.2-1c0.5-0.7,0.7,0,0.7,0.5c0.5,0.2,0.5-0.5,0.2-0.7
			c-0.2-0.5-0.7-0.7-1.1-0.5c-0.1,0-0.1,0.1-0.2,0.1c-0.4,0-0.7,0.2-0.7,0.5c0,0.1,0,0.1,0,0.2c0,0.2,0.2,0.2,0.2,0.5
			c0,0.3-0.1,0.5-0.2,0.7c-0.6,0.8-0.8,1.9-0.5,2.9c0.3,0.9,0.4,1.9,0.2,2.9c-0.2,0.7-0.4,1.3-0.7,1.9c-0.5,0.5-1.5,1-1.9,0.2
			c-0.4-0.3-0.5-0.8-0.3-1.2c0,0,0,0,0,0c0.2-0.5,0.5-0.2,0.7,0s0,0.7,0.5,0.5c0.2-0.5,0.5-0.7,0.7-1.2c0.3-0.8,0.4-1.6,0.2-2.4
			c0-0.8-0.2-1.6-0.4-2.4c-0.2-0.5-0.3-1-0.2-1.5c0.1-0.1,0.2-0.3,0.2-0.5c0.1-0.1,0.2-0.3,0.2-0.5c-0.2-0.2-1.7,0.5-1.9,0.5
			c-0.1,0.1-0.2,0.1-0.4,0.2c0.1,0,0.1,0,0.1,0.1c0,0.2,0.7,0,0.7,0.2v0.7c0,0.8,0.2,1.6,0.5,2.4c0,0.7,0.5,2-0.2,2.4
			c-0.2,0.2-0.7-0.2-1,0c-0.2,0-0.5,0.2-0.7,0.7c-0.2,1-0.2,1.9,0.5,2.4c0.5,0.7,0.7,1.6,0.7,2.4c-0.3-0.4-0.6-0.8-0.7-1.2
			c0-0.3-0.2-0.5-0.5-0.5c0,0.2-0.1,0.4-0.2,0.5c-0.2,0-0.2-0.2-0.5,0v0.7c0,0.5,0,0.7-0.2,0.5c-0.2,0-0.5-0.5-0.7-0.2
			c-0.5,0.2-0.2,1.2-0.2,1.5c-0.2,0.4-0.6,0.8-1,1c-0.5,0.5-1,0.7-1.5,1.2c-0.2,0.5-0.2,1-0.5,1.5c-0.2-0.2-0.2-0.7-0.7-0.5
			c-0.2,0-0.5,0.5-0.7,0.7l0,0v5c0.3-0.1,0.7-0.5,0.7-0.7c0-0.6-0.3-1.1-0.7-1.5c0.2,0,0.2-0.2,0.5-0.2s0.2,0.2,0.5,0.2
			s0-0.2,0.2-0.5c0-0.2,0.2-0.5,0.5-0.7c0.5-0.2,0.5,0,0.7,0.2c0,0.3,0.1,0.5,0.2,0.7c0.2,0,0.5-0.2,0.7-0.2c0.3,0,0.5,0.1,0.7,0.2
			c0,0.2-0.2,0.2-0.5,0.5c-0.5,0.2-0.6,0.8-0.4,1.2c0,0.1,0.1,0.2,0.2,0.2c0.2,0.2,0.2,0,0.5-0.2c0.2-0.5,0.2-0.7,0.5-1.2
			c0.6-1.4,1.6-2.6,2.9-3.4c1-0.8,1.6-2.1,1.7-3.4c0-0.6-0.2-1.2-0.5-1.7c0,0-0.5-0.5-0.2-0.7c0-0.2,0.2-0.2,0.5-0.2
			s0.2-0.2,0.5-0.2c0.5,0,0.2,1.7,0.2,2.2c0,0.3,0,0.6,0,0.9c0.1-0.5,0.2-1.1,0.3-1.6v-1.5c0-0.4,0.1-0.9,0.3-1.2
			c0.2-0.2,0.2-0.7,0.7-0.5s0.7,0.5,1.2,0.2c0.8-0.3,1.4-0.9,1.7-1.7c0-0.8-0.5-1.4-1.2-1.7c-0.2,0-0.2,0-0.5-0.2c0-0.5,0-1,0.2-1.4
			C28.3,10.2,28.5,10.4,29,10.4z M22.7,21.4c-0.2,0.4-0.4,0.7-0.7,1h0.5c-0.2,0.6-0.6,1-1.2,1.2c-0.2,0-0.5,0.2-0.7,0.2
			c-0.2,0.2-0.7,0-1,0.2c-0.2,0-0.5,0.2-0.7,0.5c0,0-0.2,0.5-0.5,0.5c-0.5,0-0.2-1.2,0-1.5c0-0.5,0.7-1,1.2-1.2
			c0.7-0.2-0.2,0.5,0.2,0.7s0.7-1,1-1.2c0.5-0.7,0.2-1.2,0.2-1.9c0.2,0,0.5,0.5,0.7,0.7c0.7-0.2,0.5-1.2,0.5-1.7
			c0,0.1,0.1,0.2,0.2,0.2c0.2,0,0-0.2,0-0.5c0.5-0.2,0.2,1.7,0.5,1.9c0-0.2,0-0.2,0.2-0.5C23.1,20.6,23,21.1,22.7,21.4z M28.7,12.9
			c0.5,1-0.7,1.7-1.5,1.7c-1.2,0-0.7-1.9-1-2.7c0-1,0-2.4,1.2-2.4c-0.3,0.7-0.4,1.4-0.5,2.2c0,0.2-0.2,0.5,0,0.7s0.2,0.2,0.5,0
			C28,12.4,28.5,12.4,28.7,12.9z"/>
		<path class="st6" d="M20.9,9.2h-1.6c-0.2,0-1.2,0-1.4,0.2s0.2,0.5,0.5,0.7c0.4,0.3,0.5,0.9,0.2,1.4c-0.2,1.1-0.7,2.1-0.9,3
			c-0.5,1.2-0.7,2.1-1.2,3.2c-0.2,0.5-0.2,0.7-0.5,1.2c0,0.2-0.1,0.4-0.2,0.5c-0.1-0.2-0.2-0.3-0.2-0.5c-0.2-0.5-0.2-0.7-0.5-1.2
			c-0.5-1.2-0.7-2.1-1.2-3.2c-0.2-0.9-0.7-1.9-0.9-3c-0.3-0.5-0.2-1,0.2-1.4c0.2-0.2,0.7-0.5,0.5-0.7s-1.2-0.2-1.4-0.2h-1.6
			C9.8,9.2,8.8,9,8.8,9.5c-0.2,0.5,0.7,0.5,0.9,0.7c0.8,0.5,1.3,1.4,1.4,2.3c0.5,0.9,0.7,1.9,1.2,3l2.1,5.5c0.2,0.5,0.5,0.7,0.9,0.7
			c0.2,0,0.2,0,0.4-0.2c0.2,0.2,0.2,0.2,0.5,0.2c0.5,0,0.7-0.2,0.9-0.7c0.7-1.9,1.4-3.7,2.1-5.6c0.5-1.2,0.7-2.1,1.2-3
			c0.1-0.9,0.6-1.8,1.4-2.3c0.2-0.2,1.2-0.2,0.9-0.7C22.7,9,21.8,9.2,20.9,9.2z"/>
		
			<linearGradient id="SVGID_6_" gradientUnits="userSpaceOnUse" x1="-1821.265" y1="3257.04" x2="-1821.265" y2="3258.3999" gradientTransform="matrix(-1 0 0 1 -1792.04 -3250.0801)">
			<stop  offset="0" style="stop-color:#FFBB6C"/>
			<stop  offset="1" style="stop-color:#8C4100"/>
		</linearGradient>
		<path class="st7" d="M29.2,8c0.2,0,0.5,0.7,0.5,0.2c0-0.2-0.2-0.5-0.5-0.7c0-0.2-0.2-0.7-0.5-0.5C29,7.5,29.2,7.8,29.2,8z"/>
		
			<linearGradient id="SVGID_7_" gradientUnits="userSpaceOnUse" x1="-1820.775" y1="3257.3501" x2="-1820.775" y2="3259.02" gradientTransform="matrix(-1 0 0 1 -1792.04 -3250.0801)">
			<stop  offset="0" style="stop-color:#FFBB6C"/>
			<stop  offset="1" style="stop-color:#8C4100"/>
		</linearGradient>
		<path class="st8" d="M28,7.8c0.2,0.4,0.4,0.8,0.7,1.2c0,0,0.7,0.2,0.7-0.2c-0.1-0.5-0.3-0.9-0.7-1.2C28.3,7.3,28.3,7.5,28,7.8z"/>
		
			<linearGradient id="SVGID_8_" gradientUnits="userSpaceOnUse" x1="-1809.145" y1="3276.1899" x2="-1809.145" y2="3277.6201" gradientTransform="matrix(-1 0 0 1 -1792.04 -3250.0801)">
			<stop  offset="0" style="stop-color:#FFBB6C"/>
			<stop  offset="1" style="stop-color:#8C4100"/>
		</linearGradient>
		<path class="st9" d="M16.6,27l0.5,0.5c0,0.2,0,0.5,0.2,0.2s0.7-1,0.5-1.2c-0.2,0.2-0.2,0.2-0.5,0c-0.2,0-0.2-0.5-0.5-0.2l-0.2,0.2
			C16.4,26.7,16.1,26.5,16.6,27z"/>
		<rect class="st10" width="32" height="32"/>
	</g>
</g>
</svg>
