<svg xmlns="http://www.w3.org/2000/svg" viewBox="0 0 80 80.7">
    <defs>
        <style>
            .cls-1{fill:#06b4fd;}.cls-2,.cls-3{fill:#fff;}.cls-2{opacity:0.9;isolation:isolate;}.cls-4{fill:#d43634;}.cls-5{fill:#034582;}.cls-6{fill:#107c84;}
        </style>
    </defs>
    <title>资源 2</title>
    <g id="图层_2" data-name="图层 2">
        <g id="图层_1-2" data-name="图层 1">
            <circle class="cls-1" cx="40" cy="40" r="40"/>
            <path class="cls-2"
                  d="M25.7,43.3a4.08,4.08,0,0,0-1.5,2.1,4.46,4.46,0,0,0,1.1,4.1,8,8,0,0,0,4.7,2c2.6.2,5.4-1.1,7.5-2.6a18.41,18.41,0,0,0,3.6-3.5c-3-1.6-6.8-3.3-10.8-3.1A9,9,0,0,0,25.7,43.3Zm38.2,6.9A26.56,26.56,0,0,0,66,40a26,26,0,1,0-4.9,15.2c-4.6-2.2-11.9-5.8-16.5-8a20.44,20.44,0,0,1-9,6,12.9,12.9,0,0,1-6.4.5,8.36,8.36,0,0,1-4.6-2.4,7.21,7.21,0,0,1-1.4-1.9c0,.1.1.1.1.2a8.41,8.41,0,0,1-.4-1,2.92,2.92,0,0,1-.2-.9v-.6a4.87,4.87,0,0,1,.1-1.2,6.42,6.42,0,0,1,1.8-3.3,10.13,10.13,0,0,1,7.6-2.5c2.5,0,7,1.1,10.8,2.5a37.79,37.79,0,0,0,2.1-6.2H29.5V34.7h8V31.3H27.8V29.4h9.7V26c0-.5.1-.8.8-.8h3.8v4.2H52.6v1.7H42.1v3.3h8.4A35.66,35.66,0,0,1,47,43.8C52.9,45.9,61.2,49.1,63.9,50.2Z"/>
            <path class="cls-3"
                  d="M71,80.7l-31.44-.13a2,2,0,0,1-2-2.53l4.82-21.3a3.27,3.27,0,0,1,3.17-2.41L77,54.46A2,2,0,0,1,79,57L74.17,78.29A3.56,3.56,0,0,1,71,80.7Z"/>
            <path class="cls-4"
                  d="M47.55,77.4l2.91-12.55h-.13A.47.47,0,0,0,50,65c0,.26-.25,1-.25,1.27a10.12,10.12,0,0,1-.25,1.14H48.18l.25-1.14c.26-1.14.26-1.52.38-2h0c.51-.13.76-.13,1.4-.25h0l-.13.38a.27.27,0,0,0,.25-.26.42.42,0,0,0,.26-.12l1.52-6.34a3.25,3.25,0,0,1,3-2.54H46a3.26,3.26,0,0,0-3,2.54l-4.56,19.9a2,2,0,0,0,1.9,2.54h9.13a2.11,2.11,0,0,1-1.9-2.67ZM46.66,67a4.11,4.11,0,0,1-1.78.38c-.5,0-1.52-.13-1.77-.63-.13-.26-.25-.38-.25-.64l.12-.88V65l.76-3.29v-.26h1.65c-.13.38-.89,3.3-.89,3.3l-.12.89v.12c0,.38.25.64.76.64a1.81,1.81,0,0,0,.76-.26,2,2,0,0,0,.63-1.39s.76-3.17.76-3.3h1.4c-.13.38-.89,3.42-.89,3.42l-.13.26A2.1,2.1,0,0,1,46.66,67Z"/>
            <path class="cls-5"
                  d="M58.45,77.4l.76-3.29H57.94a.27.27,0,0,1-.25-.26,1,1,0,0,1,.12-.5l1.52-5.07h1.15l-.13.5.13-.12.25-1.27H60a5.14,5.14,0,0,1,.13-.63V66.5a11.23,11.23,0,0,0,.25-1.14c0-.12,0-.38-.25-.38a.45.45,0,0,0-.38.13c0,.25-.26,1-.26,1.27a10.12,10.12,0,0,1-.25,1.14H57.94l.25-1.14c.26-1.14.26-1.53.38-2h0c.51-.13.76-.13,1.4-.26h0l-.13.38a.27.27,0,0,0,.26-.25,2.45,2.45,0,0,1,.76-.25,1,1,0,0,1,.5.12l1.4-6.33a3.27,3.27,0,0,1,3.17-2.54H55A3.25,3.25,0,0,0,52,57.76l-1.39,6.33a1.44,1.44,0,0,1,.63-.12,1.05,1.05,0,0,1,.76.38c.13.25,0,.63-.12,1.27l-.13.38a7.8,7.8,0,0,0-.25,1.39l-.13.13H50.08a5.38,5.38,0,0,1,.13-.64v-.25c.12-.51.25-1,.25-1.14a.46.46,0,0,0-.13-.38L47.42,77.66a2,2,0,0,0,1.9,2.53h10.9a2.26,2.26,0,0,1-1.77-2.79Zm.38-8.74-.26.76H56.8l-.25.12c-.13.13-.13,0-.26.13a2.41,2.41,0,0,1-.63.13h-.51l.26-.76h.38l.25-.26.25-.63h1.27l-.25.51Zm-4.69-4.19-.26,1a5.52,5.52,0,0,1-.12.63c-.13.51-.13.64-.26.76a1,1,0,0,1-.12.51H52c0-.25.13-.38.13-.51a.92.92,0,0,1,.13-.5,6.31,6.31,0,0,1,.25-.89,3.24,3.24,0,0,1,.25-1c0-.12,0-.25.26-.5a1,1,0,0,1,1-.13c.25.25.25.51.13.63Zm.25,1.15a2,2,0,0,1,2.16-1.78c.5,0,1,.13,1.14.51a2.13,2.13,0,0,1,.12,1.39,2.85,2.85,0,0,1-.5,1.14,2.11,2.11,0,0,1-1.65.64,1.57,1.57,0,0,1-.76-.13A2,2,0,0,1,54.39,65.62Zm2.79,8.49H55.41a.45.45,0,0,1-.26-.13c0-.13-.12-.13-.12-.38l.38-1.39h-.77l.26-.76h.76l.25-.64h-.76l.26-.76h3.16l-.25.76H57.05l-.25.51h1.27l-.26.76H56.55l-.26,1c0,.13.26.13.51.13l.63-.13-.25,1Z"/>
            <path class="cls-5"
                  d="M60.22,69l-.25.89a.37.37,0,0,0,.25-.13V69Zm-4.31-2.41c.13,0,.26-.13.38-.25a5.14,5.14,0,0,0,.26-.76c.12-.64.12-1-.26-1s-.5.51-.76,1c0,.25-.12.38-.12.5C55.66,66.63,55.91,66.63,55.91,66.63ZM59.08,73v.25l.13.13h.12l.51-1.9h-.25ZM60,70.18l-.13.38h.26l.12-.38Z"/>
            <path class="cls-6"
                  d="M68.34,66.63a1,1,0,0,0,.5-.25l.13-.26c0-.12.13-.38.13-.5v-.26c0-.38-.13-.63-.38-.63s-.51.51-.77,1c0,.26-.12.38-.12.51C68.08,66.63,68.34,66.63,68.34,66.63Zm-6.72,3.93.12-.38H60.1l-.13.38h1.39C61.62,70.56,61.62,70.69,61.62,70.56Z"/>
            <path class="cls-6"
                  d="M76.07,55.09H66.18A3.53,3.53,0,0,0,63,57.63L61.62,64a.27.27,0,0,1,.25.25c.13.25,0,.63-.13,1.27l-.12.38a8.17,8.17,0,0,0-.26,1.39h-.5l-.26,1.27c.13-.13.26-.25.38-.25a5.14,5.14,0,0,1,.76-.26h1.78l-.64,2.16c-.12.38-.25.51-.25.63a.28.28,0,0,1-.25.26.49.49,0,0,1-.38.12H60l-.51,1.9h.64l-.26.89h-.51l-.76,3.3a2,2,0,0,0,1.91,2.53h9.88a3.51,3.51,0,0,0,3.17-2.53L78.1,57.5a2.12,2.12,0,0,0-2-2.41ZM69,63.84a1.87,1.87,0,0,1,.51.38v-.13h0c.63-.12.76-.12,1.39-.25h0c-.13.51-.25,1-.38,1.4-.25,1-.25,1.52-.38,2H68.84V67a1.29,1.29,0,0,1-.63.25,1.67,1.67,0,0,1-.76-.12c-.76-.26-.64-1.14-.51-1.65a2,2,0,0,1,.63-1.27A1.67,1.67,0,0,1,69,63.84Zm-6.85,3.55,1-3.93.38-1.77v-.26h2.15c.89,0,1.52,0,1.9.51a1.77,1.77,0,0,1,.26.76v.51a2.54,2.54,0,0,1-1,1.52,4.11,4.11,0,0,1-2.4.51h-.13l-.13.12-.25.76a11,11,0,0,0-.26,1.27ZM62.5,72c0,.13-.12.26-.25.38a.73.73,0,0,1-.63.26H61v.63h1l-.26.89h-.63a2.1,2.1,0,0,1-1-.13c-.13,0-.13-.13-.13-.25V71.57h1v.51h.51c.13,0,0,0,0-.13l.13-.38h.88Zm3.68,2.16H65l.13-.26H62.88l.26-.76h.25l1.14-4,.26-.76h1.14l-.13.38a.94.94,0,0,1,.63-.26c.26,0,1.4-.12,1.91-.12H69.6v.5c0,.13,0,.13.26.13h.25l-.25.76h-.64c-.63,0-.76-.25-.76-.51v-.5l-.25.38h-.38l-1.14,4h.25l-.25.76h-.38l-.13.26Zm5.2-3.55H70.11l-.25.63h1.26l-.25.64H69.48l-.26.25h.51l.13.89v.25h.38l-.26.89h-.76c.26,0,.26-.13.13-.13a.27.27,0,0,1-.25-.25L69,72.84l-.63.89a1.32,1.32,0,0,1-.89.51h-.89l.25-.77h.64a.41.41,0,0,0,.25-.12l.89-1.27H67.45l.25-.76h1.4l.25-.63H68l.26-.76H72l-.63.63Zm.76-2.41h0l-.51.89a1.08,1.08,0,0,1-.89.5H70l.26-.76h.38l.12-.12.26-.51c.38-.63.5-.89.88-1.52,0-.76-.12-1-.12-1.39s-.13-.64-.13-.89a1.59,1.59,0,0,0-.13-.89h0a4.69,4.69,0,0,0,1.27-.25h0l.13,1.64V65a8.55,8.55,0,0,0,.76-1.52h0a6,6,0,0,0,1.27-.25h0c.12,0-2.41,4.31-2.79,4.94Z"/>
            <path class="cls-6"
                  d="M62,69.54l.12-.5H60.48l-.13.76a1.77,1.77,0,0,1,.76-.26Zm3.42-5.32a1,1,0,0,0,.63-.89c.13-.5,0-.76-.38-.88h-1v.12l-.25,1.65v.13h.25a1.57,1.57,0,0,0,.76-.13Zm-.89,8.87h1l.25-.88h-1Zm1.14-4-.25,1a1.72,1.72,0,0,0,.51-.25h.5l.26-.76Zm-.76,2.53a1.85,1.85,0,0,1,.51-.25,1.33,1.33,0,0,0,.51-.13l.25-.76h-1l-.26,1.14Z"/>
        </g>
    </g>
</svg>
