<svg xmlns="http://www.w3.org/2000/svg" viewBox="0 0 80 80">
    <defs>
        <style>
            .cls-1{fill:#0074ff;}.cls-2{opacity:0.8;}.cls-3,.cls-4{fill:#fff;}.cls-4{opacity:0.9;isolation:isolate;}
        </style>
    </defs>
    <title>网银</title>
    <g id="图层_2" data-name="图层 2">
        <g id="图层_1-2" data-name="图层 1">
            <circle class="cls-1" cx="40" cy="40" r="40"/>
            <g class="cls-2">
                <path class="cls-3"
                      d="M54.1,34.3H52.2c-.4,0-.8.4-.8,1.1v1.9a1.17,1.17,0,0,0,1.1,1.1H54a1.16,1.16,0,0,0,1.1-1.1V35.4A.89.89,0,0,0,54.1,34.3Z"/>
                <path class="cls-3"
                      d="M54.1,41.9H52.2c-.4,0-.8.4-.8,1.1v1.9A1.17,1.17,0,0,0,52.5,46H54a1.16,1.16,0,0,0,1.1-1.1V43A.89.89,0,0,0,54.1,41.9Z"/>
                <path class="cls-4"
                      d="M40,13.8A26.1,26.1,0,1,0,66.1,39.9,26.12,26.12,0,0,0,40,13.8ZM55.2,49.5H51a4.13,4.13,0,0,1-3.4,1.9H24.8A3.57,3.57,0,0,1,21,47.6V32.4a3.57,3.57,0,0,1,3.8-3.8H47.6A4,4,0,0,1,51,30.5h4.2A3.57,3.57,0,0,1,59,34.3V45.7A3.57,3.57,0,0,1,55.2,49.5Z"/>
                <path class="cls-3"
                      d="M27.4,37a2.54,2.54,0,0,1,1.6.5,1.66,1.66,0,0,1,.5,1.2,1.69,1.69,0,0,1-.3,1,2.76,2.76,0,0,1-.8.6,2.34,2.34,0,0,1,1,.5,1.8,1.8,0,0,1,.3,1.1,1.58,1.58,0,0,1-.7,1.5,2.86,2.86,0,0,1-1.7.4H24.2V37.1l3.2-.1Zm-2,2.8h1.7a2.15,2.15,0,0,0,1-.2,1,1,0,0,0,.3-.8.78.78,0,0,0-.3-.7c-.2-.2-.5-.2-1-.2H25.4Zm0,3h1.8a3,3,0,0,0,1-.2.89.89,0,0,0,.5-.8c0-.4-.1-.7-.3-.8a1.61,1.61,0,0,0-1.1-.3H25.4Z"/>
                <path class="cls-3"
                      d="M34,37l2.6,6.7H35.4L34.8,42H32l-.6,1.7H30.2L32.8,37Zm.4,4.2-1.1-2.9h0l-1.1,2.9Z"/>
                <path class="cls-3" d="M38.3,37l3.3,4.8h0V37h1.1v6.7H41.6l-3.4-4.9h0v4.9H37.1V37Z"/>
                <path class="cls-3" d="M49.7,37l-3,2.9,3.4,3.8H48.6l-2.7-3.1-.8.8v2.3H44V37h1.1v3.2L48.2,37Z"/>
            </g>
        </g>
    </g>
</svg>
