<svg xmlns="http://www.w3.org/2000/svg" viewBox="0 0 171 171">
    <defs>
        <style>.cls-1{fill:#f9934a;}</style>
    </defs>
    <title>虚拟币</title>
    <g id="图层_2" data-name="图层 2">
        <g id="图层_1-2" data-name="图层 1">
            <path class="cls-1"
                  d="M96.91,92c-3.09-.76-16-4-16-4l-4.58,18.34,15.46,3.85c1.75.44,9.45-.08,11.17-7S100,92.76,96.91,92Z"/>
            <path class="cls-1"
                  d="M97.68,64l-10.3-2.57L83,78.9l11.29,2.81c2.31.57,9.65.9,11.48-6.41S99.44,64.44,97.68,64Z"/>
            <path class="cls-1"
                  d="M85.5,0A85.5,85.5,0,1,0,171,85.5,85.5,85.5,0,0,0,85.5,0Zm37.14,76.61C121.12,85.89,111.09,89,111.09,89s11.83,6.08,8.25,20.43-20,14.14-24.3,13.06l-6.51-1.62-3.45,13.81-8.64-2.16,3.44-13.81-5.65-1.41-3.45,13.81-9.07-2.26L65.16,115l-17-4.24,2.37-9.52,9.22,2.3c.8.2.9-.13,1-.72s11-44.08,11.08-44.41.21-.82-.76-1.06L61.45,55l2.13-8.56,17.59,4.39,3.6-14.43,8.41,2.09-3.6,14.44,6.65,1.66,3.6-14.43,8.31,2.07-3.6,14.43a44.75,44.75,0,0,1,9.32,4.08C117.56,63.06,124.15,67.35,122.64,76.61Z"/>
        </g>
    </g>
</svg>
