<svg xmlns="http://www.w3.org/2000/svg" xmlns:xlink="http://www.w3.org/1999/xlink" viewBox="0 0 44.6 44.6"><defs><style>.cls-1{fill:url(#未命名的渐变);}.cls-2{fill:#f6fffd;}.cls-3{fill:#fff;}</style><linearGradient id="未命名的渐变" x1="33.42" y1="2110.97" x2="11.14" y2="2072.4" gradientTransform="translate(0 -2069.42)" gradientUnits="userSpaceOnUse"><stop offset="0" stop-color="#be1000"/><stop offset="1" stop-color="#ff4215"/></linearGradient></defs><title>爵士</title><g id="图层_2" data-name="图层 2"><g id="图层_1-2" data-name="图层 1"><g id="圖層_2" data-name="圖層 2"><g id="图层_1-3" data-name="图层 1"><circle class="cls-1" cx="22.3" cy="22.3" r="22.3"/><path class="cls-2" d="M7.4,36.5c.3-.3.5-.6.8-.9l.9-.8c.3-.3.6-.5.9-.8.6-.5,1.3-1,1.9-1.5a38.24,38.24,0,0,1,9-4.6l2.5-.8,2.5-.6a45,45,0,0,1,5.1-.8l.6-.1h.6l1.3-.1,2.6-.1,5.3.1v-.1l-5.3-.7-2.7-.2-1.3-.1H31a48.74,48.74,0,0,0-5.4.2l-2.7.3-2.7.5A42.74,42.74,0,0,0,9.8,29c-.8.4-1.6.9-2.4,1.4-.4.3-.8.5-1.2.8l-1.1.9A10.63,10.63,0,0,0,4,33l-.8.7a23.8,23.8,0,0,0,3.1,4l.3-.4Z"/><path class="cls-3" d="M27.7,11.9h-.2a17.58,17.58,0,0,1-5.6.7c-.9,0-1.8,0-2.9-.1h0a.73.73,0,0,0-.7.6l-.2.9a.68.68,0,0,0,.4.8c4.1,1.6,4.3,1.6,3.3,5.5L21,24.1l1.8-.3a11.08,11.08,0,0,1,1.9-.2l.9-.1H26l2.5-10.7a.72.72,0,0,0-.5-.9Z"/><path class="cls-3" d="M24.9,27.8l-1.2.3-2.4.8-1.5.6L19,32.9c-1,3.5-2,7.1-3.3,10.7a23.25,23.25,0,0,0,3.6.8c2.1-2.8,2.9-5.7,3.9-9.8Z"/><path class="cls-2" d="M7.4,36.5c.3-.3.5-.6.8-.9l.9-.8c.3-.3.6-.5.9-.8.6-.5,1.3-1,1.9-1.5a38.24,38.24,0,0,1,9-4.6l2.5-.8,2.5-.6a45,45,0,0,1,5.1-.8l.6-.1h.6l1.3-.1,2.6-.1,5.3.1v-.1l-5.3-.7-2.7-.2-1.3-.1H31a48.74,48.74,0,0,0-5.4.2l-2.7.3-2.7.5A42.74,42.74,0,0,0,9.8,29c-.8.4-1.6.9-2.4,1.4-.4.3-.8.5-1.2.8l-1.1.9A10.63,10.63,0,0,0,4,33l-.8.7h0a23.8,23.8,0,0,0,3.1,4l.3-.4Z"/><path class="cls-3" d="M27.5,5l1,1.2a.76.76,0,0,1-.1,1h0L25.7,9.3a.76.76,0,0,1-1-.1h0L23.3,7.4h0l3.2-2.5a.68.68,0,0,1,1,.1Z"/><path class="cls-3" d="M22.7,5.6l1.2-1a.76.76,0,0,1,1,.1h0L27.5,8h0L25.9,9.2A1.09,1.09,0,0,1,24.5,9L22.6,6.5c-.3-.2-.2-.7.1-.9Z"/></g></g></g></g></svg>