<?xml version="1.0" encoding="utf-8"?>
<!-- Generator: Adobe Illustrator 24.0.3, SVG Export Plug-In . SVG Version: 6.00 Build 0)  -->
<svg version="1.1" id="图层_1" xmlns="http://www.w3.org/2000/svg" xmlns:xlink="http://www.w3.org/1999/xlink" x="0px" y="0px"
	 viewBox="0 0 16 16" style="enable-background:new 0 0 16 16;" xml:space="preserve">
<style type="text/css">
	.st0{fill:url(#SVGID_1_);}
	.st1{fill:#080302;}
	.st2{fill:#5D5855;}
	.st3{fill:url(#SVGID_2_);}
	.st4{fill:url(#SVGID_3_);}
	.st5{opacity:0.25;fill:url(#SVGID_4_);enable-background:new    ;}
</style>
<linearGradient id="SVGID_1_" gradientUnits="userSpaceOnUse" x1="7.833" y1="-991.2789" x2="7.833" y2="-1005.2789" gradientTransform="matrix(1 0 0 -1 0 -990)">
	<stop  offset="0" style="stop-color:#F9D374"/>
	<stop  offset="0.22" style="stop-color:#A9864F"/>
	<stop  offset="0.41" style="stop-color:#F9D374"/>
	<stop  offset="0.58" style="stop-color:#A9864F"/>
	<stop  offset="0.79" style="stop-color:#F9D374"/>
	<stop  offset="1" style="stop-color:#A9864F"/>
</linearGradient>
<path class="st0" d="M11.9,2.7c0,0-4.1-1.4-4.1-1.4l0,0c0,0-4.1,1.4-4.1,1.4c0,1.4-0.6,2.7-1.6,3.6c0,0,0.5,4.4,2.6,7.1l3.1,1.9l0,0
	l3.1-1.9c2.1-2.7,2.6-7.1,2.6-7.1C12.5,5.3,11.9,4,11.9,2.7z"/>
<path class="st1" d="M12.7,6.4c-1.2-0.9-1.5-2.6-1.4-3.1c0,0-3.5-1.2-3.5-1.2L4.4,3.3c0,0.5-0.2,2.2-1.4,3.1
	c0.2,2.3,0.9,4.5,2.2,6.4l2.6,1.6l2.6-1.6C11.7,10.9,12.5,8.7,12.7,6.4z"/>
<path class="st2" d="M12.6,6.4c-1.1-0.9-1.6-2.6-1.4-3L7.8,2.3c0,0-3.4,1.1-3.4,1.1c0.1,0.5-0.2,2.2-1.4,3c0.2,2.3,0.9,4.4,2.2,6.2
	l2.6,1.5l2.6-1.5C11.6,10.8,12.4,8.7,12.6,6.4z M10.3,12.5L7.8,14l-2.5-1.5c-1.2-1.8-2-3.9-2.1-6.1c1.1-0.8,1.5-2.6,1.4-3
	c0,0,3.2-1.1,3.2-1.1s3.2,1,3.2,1.1c-0.1,0.4,0.4,2.1,1.5,3C12.3,8.6,11.6,10.7,10.3,12.5L10.3,12.5z"/>
<linearGradient id="SVGID_2_" gradientUnits="userSpaceOnUse" x1="7.8518" y1="-999.8522" x2="7.8518" y2="-994.463" gradientTransform="matrix(1 0 0 -1 0 -990)">
	<stop  offset="0.14" style="stop-color:#D7B873"/>
	<stop  offset="0.5" style="stop-color:#FAFDBD"/>
	<stop  offset="0.91" style="stop-color:#D7B873"/>
</linearGradient>
<path class="st3" d="M9,9.7C9,9.7,8.8,9.8,8.8,9.7c0,0-0.1-0.1-0.1-0.1c-0.1,0.1-0.2,0.1-0.3,0c0,0,0,0-0.1-0.1
	c-0.1,0.1-0.2,0.1-0.3,0c0,0,0,0-0.1-0.1c0,0.1-0.1,0.1-0.2,0.1c-0.1,0-0.1,0-0.2-0.1c0,0.1-0.2,0.1-0.3,0.1c0,0,0,0-0.1,0
	c0,0.1-0.2,0.2-0.3,0.1c0,0-0.1,0-0.1-0.1c0,0.1-0.1,0.2-0.2,0.2c0,0-0.1,0-0.2-0.1c0,0.2-0.1,0.2-0.2,0.2c-0.1,0-0.2-0.1-0.2-0.2v0
	c0,0,0,0,0-0.1c0,0,0-0.1,0-0.2v0c-0.1,0-0.1-0.2,0-0.2v0C6.1,9,6.1,9,6.1,8.8C6,8.8,5.9,8.8,5.9,8.7c0,0,0-0.1,0-0.2
	c-0.1,0-0.2,0-0.2-0.2c0-0.1,0-0.2,0.1-0.2c0.1,0,0.2,0,0.3,0c0.1,0.1,0.1,0.2,0,0.3c0.1,0,0.2,0,0.2,0.1c0,0.1,0,0.2,0,0.2
	c0,0,0,0,0.1,0c0.1,0,0.2,0.1,0.1,0.2l0,0v0c0,0,0.1,0,0.1,0.1c0-0.1,0-0.1,0-0.2C6.5,8.8,6.4,8.8,6.5,8.7c0-0.1,0.2-0.1,0.3-0.1
	l0,0c0.1,0,0.1,0.2,0,0.3c0.1,0,0.1,0,0.2,0.1c0-0.1,0-0.2,0.1-0.2c-0.2,0-0.2-0.1-0.2-0.2S6.9,8.4,7,8.4s0.1,0,0.2,0.1
	c0,0.1,0,0.2,0,0.3c0.1,0,0.1,0,0.2,0.1c0-0.1,0.1-0.2,0.2-0.2c0.1,0,0.2,0,0.2,0.1c0.1-0.1,0.1-0.2,0.2-0.2c0.1,0,0.2,0.1,0.2,0.2
	c0.1-0.1,0.2-0.2,0.2-0.1c0.1,0,0.2,0.1,0.2,0.2c0-0.1,0.1-0.1,0.2-0.1c0,0-0.1-0.1-0.1-0.1s0-0.1,0-0.2c0-0.1,0.2-0.1,0.2-0.1
	C8.9,8.4,9,8.5,9,8.6c0,0.1-0.1,0.2-0.2,0.2c0.1,0,0.1,0.1,0.1,0.2c0-0.1,0.1-0.1,0.2-0.1c-0.1,0-0.1-0.1-0.1-0.2c0,0,0-0.1,0.1-0.1
	c0.1,0,0.2,0,0.3,0.1c0.1,0.1,0,0.2-0.1,0.3h0c0,0,0.1,0.1,0,0.2c0,0,0-0.1,0.1-0.1c0,0,0,0,0,0c0-0.2,0-0.2,0.2-0.3
	c0-0.1,0-0.2,0-0.2c0-0.1,0.1-0.1,0.2-0.1c0,0-0.1-0.1-0.1-0.2c0-0.1,0-0.1,0.1-0.2c0.1-0.1,0.2-0.1,0.3,0c0,0,0.1,0.1,0,0.2
	c0,0.1-0.1,0.2-0.2,0.2c0.1,0.2,0,0.3-0.2,0.3c0,0,0,0,0,0c0,0.1,0,0.2,0,0.2l0,0v0c0,0.1,0,0.2,0,0.2c0,0,0,0,0,0.1
	c0,0,0,0.1,0,0.2v0c0,0.1,0,0.2-0.1,0.3c0,0,0,0,0,0c-0.1,0-0.2,0-0.2-0.2c0,0,0,0,0,0L9,9.7z M7.8,5C8,5,8.1,4.9,8.1,4.8l0,0
	c0-0.2-0.1-0.3-0.3-0.3c-0.2,0-0.3,0.1-0.3,0.3C7.5,4.9,7.6,5,7.8,5L7.8,5z M7.8,5.5c-0.2,0-0.3,0.1-0.3,0.3s0.1,0.3,0.3,0.3
	c0.2,0,0.3-0.1,0.3-0.3S8,5.5,7.8,5.5z M5.8,5.4c-0.2,0-0.3,0.1-0.3,0.3l0,0c0,0.2,0.1,0.3,0.2,0.3C6,6,6.1,5.9,6.1,5.8
	c0,0,0,0,0-0.1C6.1,5.5,6,5.4,5.8,5.4L5.8,5.4z M9.6,5.7c0,0.2,0.1,0.3,0.3,0.3s0.3-0.1,0.3-0.3S10,5.4,9.9,5.4l0,0
	C9.7,5.4,9.6,5.5,9.6,5.7C9.6,5.6,9.6,5.7,9.6,5.7L9.6,5.7z M9,6c0-0.2-0.1-0.3-0.2-0.3l0,0C8.6,5.8,8.5,5.9,8.5,6
	c0,0.2,0.1,0.3,0.3,0.3C8.8,6.2,9,6.2,9,6L9,6z M7.8,6.9c0.2,0,0.2-0.1,0.3-0.2l0,0c0-0.2-0.1-0.3-0.2-0.3c-0.2,0-0.3,0.1-0.3,0.2
	c0,0,0,0,0,0.1C7.6,6.8,7.7,7,7.8,6.9C7.8,6.9,7.8,6.9,7.8,6.9L7.8,6.9z M7.2,6c0-0.2-0.1-0.3-0.3-0.3S6.7,5.9,6.7,6l0,0
	c0,0.2,0.2,0.2,0.3,0.2C7.1,6.2,7.2,6.1,7.2,6L7.2,6z M8.1,7.3c0-0.1-0.2-0.2-0.3-0.2c-0.1,0-0.2,0.1-0.2,0.2c0,0.1,0.1,0.2,0.2,0.2
	C8,7.6,8.1,7.5,8.1,7.3L8.1,7.3z M9.2,6.4c0,0.1,0.1,0.2,0.2,0.2s0.2-0.1,0.2-0.2c0-0.1-0.1-0.2-0.2-0.2c0,0,0,0-0.1,0
	C9.3,6.2,9.2,6.3,9.2,6.4L9.2,6.4L9.2,6.4z M11.3,6.8c0-0.1-0.1-0.2-0.2-0.2c-0.1,0-0.2,0.1-0.2,0.2s0.1,0.2,0.2,0.2
	C11.1,7,11.2,7,11.3,6.8L11.3,6.8z M4.5,6.8c0,0.1,0.1,0.2,0.2,0.2l0,0c0.1,0,0.2-0.1,0.2-0.2l0,0c0-0.1-0.1-0.2-0.2-0.2l0,0
	C4.6,6.6,4.4,6.7,4.5,6.8C4.4,6.8,4.4,6.8,4.5,6.8L4.5,6.8z M6.1,6.4c0,0.1,0.1,0.2,0.2,0.2l0,0c0.1,0,0.2-0.1,0.2-0.2l0,0
	c0-0.1-0.1-0.2-0.2-0.2S6.1,6.3,6.1,6.4z M7.2,6.6C7,6.6,6.9,6.7,6.9,6.8C6.9,7,7,7.1,7.2,7.1c0.1,0,0.2-0.1,0.2-0.2l0,0
	C7.4,6.7,7.3,6.6,7.2,6.6L7.2,6.6L7.2,6.6z M8.6,6.6c-0.1,0-0.2,0.1-0.2,0.2c0,0.1,0.1,0.2,0.2,0.2S8.8,7,8.8,6.8
	C8.8,6.7,8.7,6.6,8.6,6.6L8.6,6.6L8.6,6.6z M10,6.6c-0.1,0-0.2,0.1-0.3,0.2c0,0.1,0.1,0.2,0.2,0.3c0,0,0,0,0.1,0
	c0.1,0,0.2-0.1,0.2-0.2C10.2,6.7,10.1,6.6,10,6.6L10,6.6L10,6.6z M5.5,7.3c0-0.1-0.1-0.2-0.2-0.2C5.2,7.1,5,7.2,5,7.3
	s0.1,0.2,0.2,0.2C5.4,7.5,5.5,7.5,5.5,7.3L5.5,7.3z M10.7,7.3c0-0.1-0.1-0.2-0.2-0.2l0,0c-0.1,0-0.2,0.1-0.2,0.2s0.1,0.2,0.2,0.2
	S10.7,7.5,10.7,7.3z M5.7,6.6c-0.1,0-0.2,0.1-0.2,0.2c0,0.1,0.1,0.2,0.2,0.2S5.9,7,5.9,6.8C5.9,6.7,5.8,6.6,5.7,6.6L5.7,6.6z
	 M7.8,7.7c-0.1,0-0.2,0.1-0.2,0.2l0,0c0,0.1,0.1,0.2,0.2,0.2c0.1,0,0.2-0.1,0.2-0.2S7.9,7.7,7.8,7.7z M8.7,7.5
	c0-0.1-0.1-0.2-0.2-0.2c-0.1,0-0.2,0.1-0.2,0.2c0,0.1,0.1,0.2,0.2,0.2l0,0C8.5,7.7,8.7,7.6,8.7,7.5z M9.1,6.9C9,6.9,8.9,7,8.9,7.1
	c0,0.1,0.1,0.2,0.2,0.2s0.2-0.1,0.2-0.2C9.3,7,9.3,6.9,9.1,6.9C9.2,6.9,9.2,6.9,9.1,6.9z M6.5,6.9C6.4,6.9,6.3,7,6.3,7.1l0,0
	c0,0.1,0.1,0.2,0.2,0.2c0.1,0,0.2-0.1,0.2-0.2C6.7,7,6.7,6.9,6.5,6.9L6.5,6.9z M7.2,7.3C7.1,7.3,7,7.4,7,7.5c0,0.1,0.1,0.2,0.2,0.2
	l0,0c0.1,0,0.2-0.1,0.2-0.2l0,0C7.5,7.4,7.3,7.3,7.2,7.3L7.2,7.3L7.2,7.3z M8.1,8.4c0-0.1-0.1-0.2-0.2-0.2l0,0
	c-0.1,0-0.2,0.1-0.2,0.2c0,0.1,0.1,0.2,0.2,0.2C7.9,8.6,8,8.5,8.1,8.4z M6.5,7.7c0,0.1,0.1,0.2,0.2,0.2l0,0c0.1,0,0.2-0.1,0.2-0.2
	c0-0.1-0.1-0.2-0.2-0.2C6.6,7.5,6.5,7.6,6.5,7.7L6.5,7.7z M5.7,7.7c-0.1,0-0.2,0.1-0.2,0.2l0,0c0,0.1,0.1,0.2,0.2,0.2S5.8,8,5.8,7.9
	l0,0C5.8,7.8,5.8,7.7,5.7,7.7L5.7,7.7L5.7,7.7z M9,7.9c0.1,0,0.2-0.1,0.2-0.2c0-0.1-0.1-0.2-0.2-0.2h0c-0.1,0-0.2,0.1-0.2,0.2
	C8.7,7.8,8.8,7.9,9,7.9C8.9,7.9,8.9,7.9,9,7.9z M8.5,8c0-0.1-0.1-0.2-0.2-0.2C8.2,7.8,8.2,7.9,8.2,8c0,0.1,0.1,0.2,0.2,0.2
	C8.5,8.2,8.5,8.1,8.5,8z M8.1,8.5c0,0.1,0.1,0.2,0.2,0.2c0.1,0,0.2-0.1,0.2-0.2S8.4,8.3,8.2,8.3C8.2,8.3,8.1,8.4,8.1,8.5L8.1,8.5z
	 M10,7.7c-0.1,0-0.2,0.1-0.2,0.2l0,0C9.8,8,9.9,8.1,10,8.1c0.1,0,0.2-0.1,0.2-0.2l0,0C10.2,7.8,10.1,7.7,10,7.7
	C10.1,7.7,10,7.7,10,7.7z M9.8,7.5c0-0.1-0.1-0.2-0.2-0.2c-0.1,0-0.2,0.1-0.2,0.2s0.1,0.2,0.2,0.2h0C9.8,7.7,9.8,7.6,9.8,7.5
	L9.8,7.5L9.8,7.5z M7.4,8.7c0.1,0,0.2-0.1,0.2-0.2l0,0c0-0.1-0.1-0.2-0.2-0.2l0,0c-0.1,0-0.2,0.1-0.2,0.2S7.3,8.7,7.4,8.7L7.4,8.7z
	 M7.3,7.8C7.2,7.8,7.1,7.9,7.1,8c0,0.1,0.1,0.2,0.2,0.2c0.1,0,0.2-0.1,0.2-0.2C7.5,7.9,7.4,7.8,7.3,7.8z M6,7.3
	c-0.1,0-0.2,0.1-0.2,0.2l0,0c0,0.1,0.1,0.2,0.2,0.2c0.1,0,0.2-0.1,0.2-0.2C6.3,7.4,6.1,7.3,6,7.3C6,7.3,6,7.3,6,7.3L6,7.3z M8.6,8.2
	c0,0.1,0.1,0.2,0.2,0.2S9,8.3,9,8.2l0,0C9,8.1,8.9,8,8.8,8S8.6,8.1,8.6,8.2L8.6,8.2z M6.1,8c0,0.1,0.2,0.2,0.2,0.2
	c0.1,0,0.1-0.1,0.2-0.2c0-0.1-0.1-0.2-0.2-0.2l0,0C6.1,7.8,6.1,7.9,6.1,8L6.1,8z M7,8.2C7.1,8.1,7,8,6.9,8S6.7,8,6.7,8.1
	c0,0,0,0,0,0.1c0,0.1,0,0.2,0.2,0.2C6.9,8.5,7,8.4,7,8.2C7,8.2,7,8.2,7,8.2z M9.2,8c0,0.1,0.1,0.2,0.2,0.2l0,0
	c0.1,0,0.2-0.1,0.2-0.2c0-0.1-0.2-0.2-0.2-0.2C9.3,7.9,9.3,7.9,9.2,8L9.2,8z M6.4,8.2c-0.1,0-0.2,0.1-0.2,0.2c0,0.1,0.1,0.2,0.2,0.2
	c0.1,0,0.2-0.1,0.2-0.2C6.6,8.3,6.6,8.2,6.4,8.2z M9.2,8.2C9.1,8.2,9,8.3,9,8.4c0,0.1,0.1,0.2,0.2,0.2c0.1,0,0.2-0.1,0.2-0.2l0,0
	C9.4,8.3,9.3,8.2,9.2,8.2L9.2,8.2L9.2,8.2z"/>
<linearGradient id="SVGID_3_" gradientUnits="userSpaceOnUse" x1="5.2128" y1="-1000.9322" x2="10.4477" y2="-1000.9322" gradientTransform="matrix(1 0 0 -1 0 -990)">
	<stop  offset="0.14" style="stop-color:#D7B873"/>
	<stop  offset="0.5" style="stop-color:#FAFDBD"/>
	<stop  offset="0.91" style="stop-color:#D7B873"/>
</linearGradient>
<path class="st4" d="M9.5,10.5L9.5,10.5C9.4,10.5,9.4,10.6,9.5,10.5l-0.3,0.8l0,0l0,0L9,11v0l0,0c0,0.1-0.1,0.3-0.2,0.4c0,0,0,0,0,0
	s0,0,0,0c-0.1-0.3-0.2-0.5-0.3-0.8c0,0,0,0-0.1-0.1l0,0l0,0h0.2l0,0l0,0c0,0,0,0,0,0c0,0.2,0.1,0.3,0.2,0.4c0,0,0-0.1,0-0.2
	c0,0,0-0.1,0-0.2c0,0,0-0.1,0-0.1s0,0-0.1-0.1l0,0l0,0h0.2h0l0,0.1c0,0,0,0,0-0.1c0,0,0,0,0,0h0.2l0,0l0,0c0,0-0.1,0-0.1,0.1v0
	c0,0,0,0.1,0,0.1c0,0.1,0,0.1,0.1,0.2l0.1-0.2c0-0.1,0.1-0.2,0.1-0.3v0l0,0l0,0L9.5,10.5C9.5,10.5,9.5,10.5,9.5,10.5z M10.4,10.5
	h-0.3l0,0l0,0c0,0,0,0,0,0.1c0,0.1,0,0.2,0,0.3l0,0l0,0l-0.3-0.4h0H9.7c0,0,0,0,0,0s0,0,0,0c0,0,0.1,0,0.1,0.1c0,0,0,0,0,0.1v0.6
	c0,0,0,0,0,0h0h0.3l0,0l0,0c0,0-0.1,0-0.1-0.1v-0.5l0,0l0.4,0.5l0.1,0.1l0,0l0,0L10.4,10.5c-0.1-0.1,0-0.1,0-0.1l0,0L10.4,10.5z
	 M6.1,11.1c0,0-0.1,0.1-0.1,0.1c-0.1,0-0.2,0-0.2,0c-0.1,0-0.2,0-0.2-0.1c-0.1-0.1-0.1-0.2-0.1-0.3c0-0.1,0.1-0.2,0.2-0.2
	s0.2,0,0.2,0c0.1,0,0.2,0,0.2,0.1l0,0l0,0v-0.2l0,0l0,0c0,0,0,0-0.1,0c-0.1,0-0.1,0-0.2,0c-0.1,0-0.2,0-0.3,0.1
	c-0.2,0.1-0.3,0.3-0.2,0.5c0,0,0,0.1,0.1,0.1c0.1,0.1,0.2,0.1,0.3,0.2c0.1,0,0.2,0,0.3,0l0,0v-0.2l0,0C6,11.2,6.1,11.1,6.1,11.1z
	 M7.2,11.4H7h0c-0.1-0.1-0.1-0.1-0.2-0.2c0,0-0.1-0.1-0.1-0.2c0,0,0,0-0.1,0s0,0,0,0c0,0.1,0,0.2,0,0.2c0,0,0,0.1,0,0.1h0H6.3
	c0,0,0,0,0,0s0.1,0,0.1-0.1v-0.6c0-0.1,0-0.1-0.1-0.1s0,0,0,0l0,0h0.5c0.1,0,0.1,0,0.2,0s0.1,0.1,0.1,0.2c0,0.1,0,0.2-0.1,0.2
	c0,0-0.1,0-0.1,0c0,0,0,0,0,0c0,0,0.1,0.2,0.2,0.2C7.1,11.3,7.2,11.3,7.2,11.4L7.2,11.4z M6.9,10.9c0,0,0.1-0.1,0-0.1c0,0,0,0,0,0
	s0,0-0.1,0c-0.1,0-0.1,0-0.2,0l0,0v0.2l0,0h0.2C6.8,10.9,6.8,10.9,6.9,10.9L6.9,10.9z M8.2,10.9c0,0.2-0.1,0.3-0.2,0.4
	c-0.2,0.2-0.5,0.1-0.7-0.2c0,0,0-0.1,0-0.1c-0.1-0.2,0.1-0.5,0.3-0.5c0,0,0.1,0,0.1,0c0.1,0,0.2,0,0.3,0C8.2,10.6,8.2,10.7,8.2,10.9
	L8.2,10.9z M8.1,10.9C8.1,10.9,8.1,10.8,8.1,10.9c0-0.2-0.1-0.3-0.2-0.3c-0.1,0-0.2,0-0.3,0.1c-0.1,0.1-0.1,0.3,0,0.4
	c0.1,0.1,0.2,0.2,0.3,0.1l0,0C8,11.1,8.1,11,8.1,10.9L8.1,10.9z"/>
<linearGradient id="SVGID_4_" gradientUnits="userSpaceOnUse" x1="2.9669" y1="-998.2413" x2="9.4136" y2="-998.2413" gradientTransform="matrix(1 0 0 -1 0 -990)">
	<stop  offset="0" style="stop-color:#000000"/>
	<stop  offset="1" style="stop-color:#FFFFFF"/>
</linearGradient>
<path class="st5" d="M9.4,6.7c0-1-1.6-4.6-1.6-4.6L4.4,3.3c0,0.5-0.2,2.2-1.4,3.1c0.2,2.3,0.9,4.5,2.2,6.4l2.6,1.6
	c-0.4-0.8-0.6-1.6-0.4-2.4C7.7,10.5,9.4,8.2,9.4,6.7z"/>
</svg>
