<svg xmlns="http://www.w3.org/2000/svg" viewBox="0 0 80 80.31">
    <defs>
        <style>
            .cls-1{fill:#0074ff;}.cls-2{opacity:0.8;}.cls-3,.cls-4{fill:#fff;}.cls-4{opacity:0.9;}.cls-5{fill:#d43634;}.cls-6{fill:#034582;}.cls-7{fill:#107c84;}
        </style>
    </defs>
    <title>资源 1</title>
    <g id="图层_2" data-name="图层 2">
        <g id="图层_1-2" data-name="图层 1">
            <circle class="cls-1" cx="40" cy="40" r="40"/>
            <g class="cls-2">
                <path class="cls-3"
                      d="M54.06,34.3h-1.9c-.38,0-.76.38-.76,1.14v1.9a1.21,1.21,0,0,0,1.14,1.14h1.52a1.21,1.21,0,0,0,1.14-1.14v-1.9A1,1,0,0,0,54.06,34.3Z"/>
                <path class="cls-3"
                      d="M54.06,41.9h-1.9c-.38,0-.76.38-.76,1.14v1.9a1.21,1.21,0,0,0,1.14,1.14h1.52a1.21,1.21,0,0,0,1.14-1.14V43A1,1,0,0,0,54.06,41.9Z"/>
                <path class="cls-4"
                      d="M40,13.85A26.15,26.15,0,1,0,66.15,40,26.15,26.15,0,0,0,40,13.85ZM55.2,49.5H51a4,4,0,0,1-3.42,1.9H24.8A3.59,3.59,0,0,1,21,47.6V32.4a3.59,3.59,0,0,1,3.8-3.8H47.6A4,4,0,0,1,51,30.5H55.2A3.59,3.59,0,0,1,59,34.3V45.7A3.59,3.59,0,0,1,55.2,49.5Z"/>
                <path class="cls-3"
                      d="M27.4,37.05a2.34,2.34,0,0,1,1.57.48,1.51,1.51,0,0,1,.53,1.21,1.72,1.72,0,0,1-.27,1,1.79,1.79,0,0,1-.78.56,1.59,1.59,0,0,1,1,.53,1.64,1.64,0,0,1,.33,1.08,1.68,1.68,0,0,1-.7,1.5,3,3,0,0,1-1.67.39H24.33V37.05Zm-2,2.82h1.68a1.61,1.61,0,0,0,1-.24,1,1,0,0,0,.29-.76.83.83,0,0,0-.29-.69,1.68,1.68,0,0,0-1-.23h-1.7Zm0,3h1.82a2,2,0,0,0,1-.2.85.85,0,0,0,.45-.81,1,1,0,0,0-.33-.82,1.77,1.77,0,0,0-1.07-.26H25.43Z"/>
                <path class="cls-3"
                      d="M34,37.05l2.56,6.71H35.36l-.61-1.68H31.94l-.61,1.68H30.15l2.57-6.71Zm.45,4.13-1.05-3h0l-1.06,3Z"/>
                <path class="cls-3" d="M38.29,37.05l3.32,4.84h0V37.05h1.11v6.71H41.68l-3.36-4.9h0v4.9h-1.1V37.05Z"/>
                <path class="cls-3"
                      d="M49.67,37.05l-3,2.88,3.39,3.83H48.63L46,40.65l-.82.8v2.31h-1.1V37.05h1.1v3.17l3.12-3.17Z"/>
            </g>
            <path class="cls-3"
                  d="M70.3,80.31l-31.43-.13a2,2,0,0,1-2-2.53l4.82-21.3a3.27,3.27,0,0,1,3.17-2.41l31.43.13a2,2,0,0,1,2,2.54L73.47,77.9A3.55,3.55,0,0,1,70.3,80.31Z"/>
            <path class="cls-5"
                  d="M46.85,77l2.92-12.55h-.13a.49.49,0,0,0-.38.12c0,.26-.25,1-.25,1.27A8,8,0,0,1,48.75,67H47.49l.25-1.14c.25-1.14.25-1.52.38-2h0c.51-.12.76-.12,1.4-.25h0l-.13.38a.27.27,0,0,0,.25-.25.4.4,0,0,0,.26-.13l1.52-6.34a3.23,3.23,0,0,1,3-2.53H45.33a3.24,3.24,0,0,0-3,2.53l-4.56,19.9a2,2,0,0,0,1.9,2.54h9.12A2.11,2.11,0,0,1,46.85,77ZM46,66.62a4.11,4.11,0,0,1-1.78.38c-.51,0-1.52-.13-1.77-.63-.13-.26-.26-.38-.26-.64l.13-.88v-.26l.76-3.29V61H44.7c-.13.38-.89,3.3-.89,3.3l-.13.89v.12c0,.38.26.64.76.64a1.81,1.81,0,0,0,.77-.26c.38-.25.5-.76.63-1.39,0,0,.76-3.17.76-3.3H48c-.12.38-.88,3.43-.88,3.43l-.13.25A2.1,2.1,0,0,1,46,66.62Z"/>
            <path class="cls-6"
                  d="M57.75,77l.77-3.3H57.25a.28.28,0,0,1-.26-.25.94.94,0,0,1,.13-.51l1.52-5.07h1.14l-.12.51.12-.13L60,67h-.76a5.52,5.52,0,0,1,.12-.63v-.26A9.62,9.62,0,0,0,59.66,65c0-.12,0-.38-.26-.38a.47.47,0,0,0-.38.13c0,.25-.25,1-.25,1.27a10.12,10.12,0,0,1-.25,1.14H57.25L57.5,66c.25-1.14.25-1.52.38-2h0c.51-.13.76-.13,1.4-.25h0l-.13.38a.27.27,0,0,0,.25-.26,3,3,0,0,1,.76-.25.94.94,0,0,1,.51.13l1.39-6.34a3.28,3.28,0,0,1,3.17-2.54H54.33a3.24,3.24,0,0,0-3,2.54L49.9,63.71a1.32,1.32,0,0,1,.63-.13,1.11,1.11,0,0,1,.76.38c.13.25,0,.63-.13,1.27l-.12.38A8,8,0,0,0,50.78,67l-.12.13H49.39a5.38,5.38,0,0,1,.13-.64v-.25c.12-.51.25-1,.25-1.14a.46.46,0,0,0-.13-.38L46.73,77.27a2,2,0,0,0,1.9,2.53h10.9A2.27,2.27,0,0,1,57.75,77Zm.39-8.75-.26.76H56.11l-.26.13c-.12.12-.12,0-.25.12a2.52,2.52,0,0,1-.63.13h-.51l.25-.76h.38l.26-.25.25-.64h1.27l-.26.51Zm-4.7-4.18-.25,1a5.14,5.14,0,0,1-.13.63c-.12.51-.12.64-.25.76a.94.94,0,0,1-.13.51H51.29c0-.25.13-.38.13-.51a1,1,0,0,1,.12-.5,7.79,7.79,0,0,1,.26-.89,2.88,2.88,0,0,1,.25-1c0-.13,0-.26.25-.51a1,1,0,0,1,1-.13c.25.26.25.51.12.64Zm.26,1.14A2,2,0,0,1,54.33,64a2,2,0,0,1,1.52-.51c.51,0,1,.13,1.14.51a2,2,0,0,1,.13,1.39,2.75,2.75,0,0,1-.51,1.14,2.07,2.07,0,0,1-1.64.64,1.55,1.55,0,0,1-.76-.13A2,2,0,0,1,53.7,65.23Zm2.79,8.49H54.71a.45.45,0,0,1-.25-.13c0-.12-.13-.12-.13-.38l.38-1.39H54l.26-.76H55l.25-.64h-.76l.25-.76h3.17l-.25.76H56.36l-.25.51h1.26l-.25.76H55.85l-.25,1c0,.12.25.12.51.12l.63-.12-.25,1Z"/>
            <path class="cls-6"
                  d="M59.53,68.65l-.25.89a.39.39,0,0,0,.25-.13v-.76Zm-4.31-2.41c.13,0,.25-.13.38-.25a4.69,4.69,0,0,0,.25-.76c.13-.64.13-1-.25-1s-.51.51-.76,1c0,.25-.13.38-.13.5C55,66.24,55.22,66.24,55.22,66.24Zm3.17,6.34v.25l.13.13h.12l.51-1.9H58.9Zm.89-2.79-.13.38h.25l.13-.38Z"/>
            <path class="cls-7"
                  d="M67.64,66.24a1,1,0,0,0,.51-.25l.13-.26c0-.12.12-.38.12-.5V65c0-.38-.12-.63-.38-.63s-.5.51-.76,1c0,.26-.12.38-.12.51C67.39,66.24,67.64,66.24,67.64,66.24Zm-6.72,3.93.13-.38H59.4l-.12.38h1.39C60.92,70.17,60.92,70.3,60.92,70.17Z"/>
            <path class="cls-7"
                  d="M75.37,54.71H65.49a3.51,3.51,0,0,0-3.17,2.53l-1.4,6.34a.28.28,0,0,1,.26.25c.12.26,0,.64-.13,1.27l-.13.38a9,9,0,0,0-.25,1.39h-.51l-.25,1.27c.13-.13.25-.25.38-.25a4.77,4.77,0,0,1,.76-.26h1.78l-.64,2.16a5.52,5.52,0,0,0-.25.63.28.28,0,0,1-.26.26.47.47,0,0,1-.38.12h-2l-.51,1.91h.63l-.25.88h-.51l-.76,3.3a2,2,0,0,0,1.9,2.53h9.89a3.52,3.52,0,0,0,3.17-2.53L77.4,57.11a2.1,2.1,0,0,0-2-2.4Zm-7.09,8.74a1.84,1.84,0,0,1,.5.38v-.12h0c.64-.13.76-.13,1.4-.26h0c-.13.51-.26,1-.38,1.4-.26,1-.26,1.52-.38,2H68.15v-.25a1.29,1.29,0,0,1-.63.25,1.73,1.73,0,0,1-.77-.12c-.76-.26-.63-1.14-.5-1.65a2,2,0,0,1,.63-1.27A1.67,1.67,0,0,1,68.28,63.45ZM61.43,67l1-3.93.39-1.77V61H65c.89,0,1.52,0,1.9.51a1.77,1.77,0,0,1,.26.76v.51a2.54,2.54,0,0,1-1,1.52,4.14,4.14,0,0,1-2.41.51h-.12l-.13.12-.25.76A11,11,0,0,0,63,67Zm.38,4.56c0,.13-.13.26-.25.38a.76.76,0,0,1-.64.26h-.63v.63h1l-.25.89h-.63a2.16,2.16,0,0,1-1-.13c-.12,0-.12-.12-.12-.25V71.18h1v.51h.51c.12,0,0,0,0-.13l.12-.38h.89Zm3.68,2.16H64.35l.12-.25H62.19l.25-.76h.26l1.14-4.06.25-.76h1.14l-.12.38a1,1,0,0,1,.63-.25c.25,0,1.4-.13,1.9-.13h1.27v.51c0,.12,0,.12.25.12h.26l-.26.76h-.63c-.63,0-.76-.25-.76-.5v-.51l-.25.38h-.38L66,72.71h.26l-.26.76h-.38l-.12.25Zm5.19-3.55H69.42l-.26.63h1.27l-.25.64h-1.4l-.25.25H69l.12.89v.25h.38l-.25.89h-.76c.25,0,.25-.13.13-.13a.27.27,0,0,1-.26-.25l-.12-.89-.64.89a1.28,1.28,0,0,1-.89.51h-.88l.25-.76h.63A.4.4,0,0,0,67,73l.89-1.27H66.75l.26-.76H68.4l.26-.63h-1.4l.26-.76h3.8l-.64.63Zm.76-2.41h0l-.5.89a1.09,1.09,0,0,1-.89.51h-.76l.25-.76h.38l.13-.13.25-.51c.38-.63.51-.89.89-1.52,0-.76-.13-1-.13-1.39s-.12-.64-.12-.89a1.59,1.59,0,0,0-.13-.89h0a4.84,4.84,0,0,0,1.27-.25h0l.13,1.65v.12A8.21,8.21,0,0,0,73,63.07h0a5.92,5.92,0,0,0,1.26-.25h0c.13,0-2.4,4.31-2.79,4.94Z"/>
            <path class="cls-7"
                  d="M61.3,69.16l.13-.51H59.78l-.12.76a1.71,1.71,0,0,1,.76-.25Zm3.43-5.33a1,1,0,0,0,.63-.89c.13-.5,0-.76-.38-.88H64v.12l-.26,1.65V64H64a1.59,1.59,0,0,0,.76-.13Zm-.89,8.88h1l.26-.89h-1ZM65,68.65l-.25,1a1.59,1.59,0,0,0,.5-.25h.51l.25-.76Zm-.76,2.53a1.85,1.85,0,0,1,.51-.25,1.25,1.25,0,0,0,.5-.13l.26-.76h-1l-.25,1.14Z"/>
        </g>
    </g>
</svg>
