<svg width="22" height="22" viewBox="0 0 22 22" fill="none" xmlns="http://www.w3.org/2000/svg">
<path fill-rule="evenodd" clip-rule="evenodd" d="M1.75 11C1.75 5.89137 5.89137 1.75 11 1.75C16.1086 1.75 20.25 5.89137 20.25 11C20.25 16.1086 16.1086 20.25 11 20.25C5.89137 20.25 1.75 16.1086 1.75 11ZM11 0.25C5.06294 0.25 0.25 5.06294 0.25 11C0.25 16.9371 5.06294 21.75 11 21.75C16.9371 21.75 21.75 16.9371 21.75 11C21.75 5.06294 16.9371 0.25 11 0.25ZM10.9659 6.25882C10.4325 6.11588 9.88412 6.43246 9.74118 6.96593C9.59824 7.49939 9.91482 8.04773 10.4483 8.19067L10.7335 8.2671L6.86603 10.5C6.38773 10.7761 6.22386 11.3877 6.5 11.866C6.77614 12.3443 7.38773 12.5082 7.86603 12.2321L13.0622 9.23205C13.4433 9.012 13.6248 8.57896 13.5431 8.17008C13.5683 8.11667 13.5891 8.06026 13.6049 8.0012C13.7478 7.46774 13.4312 6.9194 12.8978 6.77646L10.9659 6.25882ZM8.5 14.866C8.4076 14.706 8.36447 14.531 8.36589 14.3587C8.35394 14.2412 8.36274 14.1196 8.39512 13.9988C8.50758 13.5791 8.87102 13.2936 9.28072 13.2606L14.0622 10.5C14.5405 10.2239 15.1521 10.3877 15.4282 10.866C15.7043 11.3443 15.5405 11.9559 15.0622 12.2321L11.9553 14.0258C12.2302 14.2692 12.3603 14.6554 12.2588 15.0341C12.1159 15.5675 11.5675 15.8841 11.0341 15.7412L9.56237 15.3468C9.15338 15.4288 8.72012 15.2473 8.5 14.866Z" fill="#C4C4C4"/>
</svg>
