<svg width="16" height="22" viewBox="0 0 16 22" fill="none" xmlns="http://www.w3.org/2000/svg">
<path d="M15 17H14.4375V9.03125C14.4375 5.72422 11.993 2.99141 8.8125 2.53672V1.625C8.8125 1.10703 8.39297 0.6875 7.875 0.6875C7.35703 0.6875 6.9375 1.10703 6.9375 1.625V2.53672C3.75703 2.99141 1.3125 5.72422 1.3125 9.03125V17H0.75C0.335156 17 0 17.3352 0 17.75V18.5C0 18.6031 0.084375 18.6875 0.1875 18.6875H5.25C5.25 20.1359 6.42656 21.3125 7.875 21.3125C9.32344 21.3125 10.5 20.1359 10.5 18.6875H15.5625C15.6656 18.6875 15.75 18.6031 15.75 18.5V17.75C15.75 17.3352 15.4148 17 15 17ZM7.875 19.8125C7.25391 19.8125 6.75 19.3086 6.75 18.6875H9C9 19.3086 8.49609 19.8125 7.875 19.8125ZM3 17V9.03125C3 7.72813 3.50625 6.50469 4.42734 5.58359C5.34844 4.6625 6.57188 4.15625 7.875 4.15625C9.17813 4.15625 10.4016 4.6625 11.3227 5.58359C12.2437 6.50469 12.75 7.72813 12.75 9.03125V17H3Z" fill="#333333"/>
</svg>
