<?xml version="1.0" encoding="utf-8"?>
<!-- Generator: Adobe Illustrator 24.0.3, SVG Export Plug-In . SVG Version: 6.00 Build 0)  -->
<svg version="1.1" id="图层_1" xmlns="http://www.w3.org/2000/svg" xmlns:xlink="http://www.w3.org/1999/xlink" x="0px" y="0px"
	 viewBox="0 0 32 32" style="enable-background:new 0 0 32 32;" xml:space="preserve">
<style type="text/css">
	.st0{fill:#B16D48;fill-opacity:0;}
	.st1{fill:#B16D48;}
</style>
<title>资源 6</title>
<g>
	<rect x="0.1" class="st0" width="32" height="32"/>
	<g id="图层_2_1_">
		<g id="图层_1-2">
			<path class="st1" d="M18.9,17.5c0.5,0.1,1,0.2,1.4,0.3c1.5,0.2,3.1,0,4.5-0.8c0.8-0.4,1.6-0.7,2.4-0.8c1.1-0.1,2.2,0.3,3.1,1
				c0.2,0.2,0.4,0.4,0.6,0.5c-0.7,0-1.4-0.1-2.2-0.1c-0.9,0-1.8,0.2-2.6,0.7c-1.2,0.6-2.5,0.9-3.8,0.9
				C21.1,19.2,19.8,18.6,18.9,17.5z"/>
			<path class="st1" d="M1,14c0.7,0.1,1.3,0.2,1.9,0.2c1.2,0.1,2.3-0.3,3.4-0.8c1.3-0.6,2.7-0.7,4-0.5c1.1,0.3,2,0.9,2.7,1.8
				c-0.5-0.1-0.9-0.2-1.3-0.3c-1.5-0.3-3.1-0.1-4.5,0.5c-0.9,0.5-1.9,0.7-2.8,0.7C3,15.7,2,15,1,14z"/>
			<path class="st1" d="M13.8,13.5l-1.4-0.7c-1.2-0.5-2.5-0.5-3.8-0.5c-1.8,0.1-3.5-0.1-4.9-1.5c-0.5-0.5-0.9-1.1-1.1-1.7
				C3.2,9.5,3.8,9.8,4.4,10c1.3,0.5,2.6,0.7,4,0.5c1.3-0.1,2.4-0.1,3.6,0.6C12.8,11.7,13.4,12.5,13.8,13.5z"/>
			<path class="st1" d="M28.6,8.1c-0.2,0.1-0.4,0.2-0.5,0.3c-1.3,0.7-2.3,1.8-2.9,3.1c-0.6,1.4-1.6,2.6-3,3.4
				c-1,0.5-2.1,0.7-3.2,0.4c0.2-0.1,0.3-0.2,0.5-0.2c1.7-0.8,3.1-2.1,3.9-3.9c0.3-0.6,0.7-1.2,1.1-1.7c0.7-0.9,1.8-1.4,2.9-1.5
				C27.7,8,28.1,8,28.6,8.1C28.5,8,28.5,8.1,28.6,8.1z"/>
			<path class="st1" d="M19,16.4c0.6-0.1,1.2-0.2,1.8-0.3c1.4-0.3,2.6-1,3.6-2.1c0.8-0.8,1.6-1.5,2.7-1.8c1.2-0.4,2.3,0,3.5,0.5
				c-0.7,0.2-1.4,0.4-2,0.6c-0.9,0.3-1.7,0.8-2.3,1.5c-0.9,0.9-1.9,1.7-3.1,2.1C21.7,17.3,20.2,17.1,19,16.4z"/>
			<path class="st1" d="M13,16.8c-0.5,0.2-0.8,0.4-1.2,0.6c-1.4,0.8-2.4,2.1-3,3.5c-0.2,0.4-0.4,0.8-0.6,1.2
				c-0.7,1.4-2.2,2.2-3.7,2.2h-1C3.7,24.2,3.8,24.1,4,24c1.3-0.8,2.3-1.9,2.9-3.3c0.5-1.3,1.4-2.4,2.5-3.2
				C10.5,16.8,11.7,16.5,13,16.8z"/>
			<path class="st1" d="M12.8,15.7c-0.8,0.2-1.5,0.3-2.2,0.5c-1.2,0.4-2.2,1-3,2C6.9,19,6,19.6,5,20c-1.3,0.4-2.4,0.2-3.7-0.4
				c0.3-0.1,0.5-0.1,0.7-0.2c1.4-0.3,2.7-1,3.7-2c0.8-0.9,1.8-1.6,2.9-2C10,14.8,11.5,15,12.8,15.7z"/>
			<path class="st1" d="M29.3,22.7c-0.7-0.3-1.4-0.6-2.1-0.9c-0.9-0.3-1.8-0.4-2.7-0.2c-1.7,0.2-3.3,0-4.8-1
				c-0.8-0.6-1.4-1.4-1.7-2.3c0.1,0.1,0.2,0.1,0.3,0.2c1.4,1,3,1.5,4.6,1.4c0.6,0,1.3-0.1,1.9-0.1c1.9,0,3.2,0.8,4.1,2.5
				C29.2,22.4,29.3,22.5,29.3,22.7z"/>
			<path class="st1" d="M14.8,12.8l-0.3-0.3c-1-1.3-2.4-2.1-4-2.5C9.2,9.8,8,9.1,7.1,8.1c-0.9-0.8-1.3-2-1.3-3.2
				c0.6,0.9,1.4,1.7,2.3,2.3c0.8,0.5,1.6,0.9,2.5,1c0.9,0.2,1.8,0.6,2.5,1.1c0.9,0.8,1.5,1.9,1.7,3.1C14.8,12.5,14.9,12.6,14.8,12.8
				C14.8,12.7,14.8,12.7,14.8,12.8z"/>
			<path class="st1" d="M24.9,4.1c-0.3,0.5-0.7,1-0.9,1.4c-0.6,1-0.9,2.2-0.9,3.3c-0.1,1.5-0.6,2.9-1.6,4c-0.7,0.8-1.7,1.3-2.7,1.5
				c0.3-0.4,0.6-0.7,0.9-1.1c0.9-1.2,1.5-2.6,1.5-4.1c0-0.7,0.1-1.3,0.3-2c0.3-1.3,1.3-2.3,2.5-2.8C24.3,4.3,24.6,4.2,24.9,4.1z"/>
			<path class="st1" d="M17.2,18.9c0.4,0.4,0.6,0.8,0.9,1.1c1.1,1.2,2.6,2,4.2,2.3c1.1,0.2,2.1,0.7,2.8,1.5c0.6,0.8,1,1.8,1,2.8
				c-0.1-0.1-0.2-0.1-0.2-0.2c-1-1.2-2.4-2.1-3.9-2.4c-1.2-0.3-2.2-0.8-3.2-1.5c-0.9-0.8-1.5-1.9-1.6-3.2
				C17.2,19.2,17.2,19.1,17.2,18.9z"/>
			<path class="st1" d="M13.4,17.6c-0.3,0.4-0.6,0.7-0.9,1c-1,1.3-1.6,3-1.6,4.6c0,1.4-0.5,2.7-1.5,3.7c-0.6,0.5-1.3,0.9-2.1,1.1
				c0.3-0.4,0.5-0.8,0.8-1.1c0.7-1,1-2.2,1-3.4c0-1.6,0.5-3.1,1.5-4.3C11.4,18.3,12.4,17.8,13.4,17.6z"/>
			<path class="st1" d="M14.1,18.5c-0.7,1.3-0.9,2.8-0.8,4.3c0.1,0.7,0.3,1.5,0.5,2.2c0.3,1.2,0.2,2.5-0.4,3.5
				c-0.4,0.7-1,1.2-1.6,1.7c0-0.1,0-0.2,0-0.3c0.6-1.6,0.6-3.4,0.1-5.1c-0.5-1.4-0.4-3,0.2-4.4C12.6,19.7,13.3,19,14.1,18.5z"/>
			<path class="st1" d="M16.1,19.3c0.1,0.3,0.2,0.6,0.3,0.9c0.6,1.6,1.7,3,3.1,3.9c0.5,0.3,1,0.7,1.4,1.1c1,1,1.4,2.4,1.1,3.8
				c0,0.2,0,0.4-0.1,0.6c0,0,0,0,0,0.1c-0.3-0.5-0.5-1.1-0.9-1.7c-0.5-0.8-1.1-1.5-1.9-2c-1.1-0.7-2-1.6-2.7-2.7
				C15.6,22.1,15.6,20.6,16.1,19.3z"/>
			<path class="st1" d="M15.9,12.9c-0.1-0.4-0.3-0.9-0.5-1.3c-0.6-1.5-1.7-2.8-3.1-3.6c-0.8-0.5-1.5-1.2-1.9-2
				c-0.6-1.1-0.6-2.4-0.3-3.7c0.1,0.3,0.3,0.6,0.4,0.9c0.5,1.2,1.4,2.2,2.4,3c1.1,0.7,2,1.6,2.7,2.7C16.3,10.1,16.4,11.6,15.9,12.9z
				"/>
			<path class="st1" d="M15.1,19.1c-0.1,1.2,0,2.4,0.4,3.5c0.3,0.9,0.8,1.7,1.4,2.5c0.5,0.7,0.9,1.5,1.1,2.4c0.1,1,0,2-0.5,2.9
				c-0.1,0.2-0.2,0.4-0.4,0.7c0-0.5,0-0.9-0.1-1.3c-0.1-1.2-0.5-2.3-1.2-3.3c-0.8-1-1.3-2.1-1.6-3.3c-0.3-1.4,0.1-2.8,0.9-3.9
				C15.1,19.2,15.1,19.1,15.1,19.1L15.1,19.1z"/>
			<path class="st1" d="M17,12.9c0.2-1.7-0.1-3.5-1-5c-0.4-0.6-0.9-1.2-1.2-1.9c-0.7-1.3-0.7-2.9,0-4.2c0-0.2,0.2-0.5,0.3-0.8
				c0,0.5,0.1,0.8,0.1,1.2c0.1,1.2,0.5,2.4,1.3,3.4c0.8,1.1,1.4,2.3,1.6,3.6s-0.2,2.7-1,3.7C17,12.9,17,12.9,17,12.9z"/>
			<path class="st1" d="M18,13.5c0.4-0.9,0.7-1.9,0.8-2.9c0.1-1-0.1-2-0.3-3c-0.2-0.6-0.3-1.2-0.3-1.9c-0.1-1.2,0.4-2.5,1.3-3.3
				C19.7,2.2,20,2,20.3,1.7c-0.2,0.7-0.3,1.3-0.5,2c-0.2,0.9-0.1,1.8,0.2,2.6c0.3,1,0.5,2,0.5,3c0,1.6-0.8,3.2-2.1,4.1
				C18.2,13.4,18.1,13.4,18,13.5z"/>
		</g>
	</g>
</g>
</svg>
