<svg class="icon" viewBox="0 0 1024 1024" xmlns="http://www.w3.org/2000/svg" width="48" height="48">
    <defs>
        <style/>
    </defs>
    <path
        d="M759.578 343.152a31.187 31.187 0 01-19.33 19.37l-385.67 385.67a148.696 148.696 0 01-61.435 36.978L135.33 833.73a39.13 39.13 0 01-48.913-48.913l48.522-157.852a148.696 148.696 0 0137.018-61.395L635.535 101.99a129.13 129.13 0 11182.622 182.583l-58.579 58.578zm-170.1-106.513L216.174 609.826a86.087 86.087 0 00-21.404 35.57L159.24 760.83l115.434-35.49a86.087 86.087 0 0035.609-21.405L683.47 330.709l-94.07-94.07zm44.218-44.335l94.07 94.109 46.134-46.135a66.522 66.522 0 10-94.07-94.07l-46.134 46.096zm-513 740.74h782.608a31.304 31.304 0 100-62.61H120.696a31.304 31.304 0 100 62.61z"/>
</svg>
