<svg class="icon" viewBox="0 0 1024 1024" xmlns="http://www.w3.org/2000/svg" width="48" height="48">
    <defs>
        <style/>
    </defs>
    <path
        d="M958.759 266.637c-39.712-70.914-96.443-130.482-161.684-173.03-8.51-5.673-14.183-8.51-22.693-8.51-19.856 0-34.039 17.02-34.039 36.875 0 14.183 5.674 25.53 19.856 34.04 119.136 73.75 192.887 209.905 192.887 354.57s-73.75 280.82-192.887 354.57c-8.51 5.673-19.856 17.02-19.856 34.04 0 19.855 14.183 36.874 34.04 36.874 8.509 0 14.182-2.836 19.855-5.673 68.078-42.548 124.81-102.116 164.521-173.03 39.712-76.587 62.404-161.684 62.404-246.781 0-85.097-22.692-170.194-62.404-243.945zM833.95 510.582c0-51.058-11.346-99.28-36.875-144.665-22.693-42.549-56.732-76.587-96.443-102.116 0 0-11.347-5.674-19.856-5.674-19.856 0-34.04 17.02-34.04 36.876 0 14.183 5.674 25.529 17.02 31.202 62.405 36.875 99.28 107.79 99.28 184.377s-39.712 147.501-104.953 184.376c-11.346 5.674-17.02 17.02-17.02 31.203 0 19.856 14.184 36.875 34.04 36.875 8.51 0 17.019-5.673 17.019-5.673C780.055 709.14 833.95 612.698 833.95 510.582zM547.457 5.673C541.784 2.837 536.111 0 530.437 0c-8.509 0-19.855 2.837-25.528 8.51-5.674 5.673-59.568 51.058-119.136 96.443-107.79 85.097-138.992 99.28-144.665 102.116H34.039C14.183 207.07 0 224.09 0 243.945v536.11c0 19.856 14.183 36.876 34.039 36.876h232.598c5.673 2.836 36.875 17.02 130.482 99.28 31.202 28.365 68.078 62.404 104.953 93.606l2.837 2.837c8.51 8.51 17.019 11.346 28.365 11.346 5.673 0 11.346 0 17.02-2.837 14.182-8.51 25.529-22.692 25.529-39.711v-181.54c0-2.837-2.837-743.18-2.837-751.69-2.836-22.693-11.346-36.876-25.529-42.549zm-45.385 782.892v116.3c-17.02-17.02-34.039-31.203-51.058-45.386C323.368 748.853 289.33 740.343 266.637 740.343H93.607c-19.856 0-25.53-5.673-25.53-28.365V303.512c0-17.019 2.837-22.692 17.02-22.692h156.011c22.693 0 53.895-8.51 195.723-119.136 22.693-17.02 45.385-34.039 65.241-51.058v677.94z"
        fill="#caab73"/>
</svg>
