<svg xmlns="http://www.w3.org/2000/svg" viewBox="0 0 32 32">
    <defs>
        <style>.cls-1{opacity:0;}</style>
    </defs>
    <title>投注</title>
    <g id="图层_2" data-name="图层 2">
        <g id="图层_1-2" data-name="图层 1">
            <rect class="cls-1" width="32" height="32"/>
            <path
                d="M4.72,31.38a3.06,3.06,0,0,1-3.07-3V6.08a3,3,0,0,1,3.07-3H8.83V1.68a1,1,0,0,1,2.05,0V3.05H22.17V1.68a1,1,0,0,1,2.06,0V3.05h3.08a3,3,0,0,1,3.07,3V28.35a3.06,3.06,0,0,1-3.07,3ZM3.7,6.07V28.34a1,1,0,0,0,1,1H27.31a1,1,0,0,0,1-1V6.07a1,1,0,0,0-1-1H24.23v.29a1,1,0,0,1-2.06,0V5.06H10.88v.29a1,1,0,0,1-1.07,1,1,1,0,0,1-1-1V5.06H4.72A1,1,0,0,0,3.7,6.07ZM6.47,25.33c-.47,0-.85-.51-.85-1.14s.38-1.14.85-1.14h6.79c.47,0,.85.51.85,1.14s-.38,1.14-.85,1.14Zm.3-6.84a1.14,1.14,0,0,1,0-2.27h8.75a1.14,1.14,0,1,1,0,2.27H6.77Zm-.12-6.35a1,1,0,1,1,0-2H23.07a1,1,0,1,1,0,2H6.65Z"/>
        </g>
    </g>
</svg>
