<svg xmlns="http://www.w3.org/2000/svg" viewBox="0 0 32 32">
    <defs>
        <style>.cls-1{fill:#ff0;opacity:0;}</style>
    </defs>
    <title>资产</title>
    <g id="图层_2" data-name="图层 2">
        <g id="图层_1-2" data-name="图层 1">
            <rect class="cls-1" width="32" height="32"/>
            <path
                d="M26.71,29.27h-21a4.51,4.51,0,0,1-4.51-4.51V8.22A4.51,4.51,0,0,1,5.66,3.71H26.71a4.51,4.51,0,0,1,4.5,4.51V24.76A4.51,4.51,0,0,1,26.71,29.27ZM6.9,6A3.46,3.46,0,0,0,3.48,9.38v15.3a2.23,2.23,0,0,0,2.18,2.18H26.71a2.22,2.22,0,0,0,2.17-2.18V8.22A2.22,2.22,0,0,0,26.71,6H6.9Z"/>
            <path
                d="M30.2,21.5H20a5.11,5.11,0,0,1-5-5.2,5.11,5.11,0,0,1,5-5.21H30.2v2.33H20a2.72,2.72,0,0,0-2.64,2.88A2.72,2.72,0,0,0,20,19.17H30.2Z"/>
            <path
                d="M24.15,17.54H21a1.17,1.17,0,1,1,0-2.33h3.11a1.19,1.19,0,0,1,1.16,1.16A1.15,1.15,0,0,1,24.15,17.54Z"/>
        </g>
    </g>
</svg>
