<svg viewBox="0 0 1024 1024" xmlns="http://www.w3.org/2000/svg" width="48" height="48">
    <defs>
        <style/>
    </defs>
    <path
        d="M512 266.724c-19.996 0-39.196 1.422-57.628 4.124-23.325 3.356-45.056-12.089-48.555-34.532-3.527-22.442 12.515-43.377 35.84-46.734 22.613-3.3 46.08-5.034 70.343-5.034 175.388 0 303.36 91.022 385.308 177.777a761.06 761.06 0 01114.86 159.175 548.468 548.468 0 017.48 14.706l.427.939.17.341v.086l.029.028-38.97 16.725 39.027 16.726-.086.113-.085.228-.341.74a624.356 624.356 0 01-22.614 41.642 770.39 770.39 0 01-67.84 96.228 43.804 43.804 0 01-59.59 6.144 40.078 40.078 0 01-7.197-57.287 686.478 686.478 0 0071.168-104.534A678.969 678.969 0 00834.19 417.65C760.946 340.053 654.165 266.724 512 266.724zm469.333 287.601l38.97 16.726a39.822 39.822 0 000-33.451l-38.97 16.725zm-794.368-194.73c8.391 7.338 13.37 17.578 13.91 28.444.512 10.894-3.47 21.533-11.094 29.582a679.168 679.168 0 00-99.555 136.704A679.367 679.367 0 00189.78 691.03C263.111 768.57 369.835 841.927 512 841.927a394.809 394.809 0 00134.4-23.239c21.902-7.396 45.91 3.47 54.044 24.405 8.107 20.935-2.616 44.26-24.177 52.537A483.186 483.186 0 01512 924.103c-175.388 0-303.36-91.022-385.308-177.778A760.917 760.917 0 0111.832 587.15a508.811 508.811 0 01-7.48-14.706l-.427-.938-.17-.342-.029-.056v-.057l38.97-16.726L3.64 537.6l.057-.028.028-.086.142-.341.427-.939 1.621-3.186c8.818-17.464 18.49-34.531 28.843-51.171a763.506 763.506 0 0191.876-119.524 43.35 43.35 0 0129.582-13.369c11.292-.54 22.357 3.3 30.72 10.639zM42.667 554.325L3.697 537.6a39.822 39.822 0 000 33.45l38.97-16.725z"/>
    <path
        d="M469.817 364.544c0-22.784 19-41.273 42.439-41.273 128.114 0 229.234 104.391 229.234 229.917 0 14.734-8.107 28.359-21.22 35.754a43.52 43.52 0 01-42.467 0 41.074 41.074 0 01-21.22-35.754c0-82.916-66.133-147.371-144.327-147.371-23.438 0-42.44-18.489-42.44-41.273zm-130.93 107.008c22.926 4.807 37.49 26.738 32.569 49.038a151.04 151.04 0 00-3.527 32.598c0 82.915 66.133 147.37 144.327 147.37 11.207 0 22.073-1.28 32.484-3.698 22.755-5.376 45.71 8.25 51.2 30.408 5.546 22.158-8.477 44.458-31.26 49.806a229.063 229.063 0 01-52.424 5.973c-128.114 0-229.234-104.391-229.234-229.916a231.42 231.42 0 015.433-49.92c2.361-10.695 9.017-20.054 18.489-25.999 9.444-5.973 20.935-7.992 31.943-5.688v.028zM100.21 111.303a43.32 43.32 0 0160.018 0l764.074 742.884c16.1 16.213 15.872 41.955-.512 57.856a43.32 43.32 0 01-59.506.512L100.21 169.67a40.476 40.476 0 010-58.368z"/>
</svg>
