<svg viewBox="0 0 1024 1024" xmlns="http://www.w3.org/2000/svg" width="48" height="48">
    <defs>
        <style/>
    </defs>
    <path
        d="M1018.738 480.711s-4.267-12.8-8.534-17.067l-21.333-42.666c-21.333-34.134-51.2-76.8-93.867-123.734-81.066-89.6-209.066-183.466-384-183.466s-302.933 93.866-384 183.466c-42.666 46.934-72.533 89.6-93.866 123.734-8.534 17.066-17.067 29.866-21.334 42.666-4.266 4.267-8.533 17.067-8.533 17.067-4.267 12.8-4.267 25.6 0 34.133 0 0 4.267 12.8 8.533 17.067l21.334 42.667c21.333 34.133 51.2 76.8 93.866 123.733 81.067 89.6 209.067 183.467 384 183.467s302.934-93.867 384-183.467c42.667-46.933 72.534-89.6 93.867-123.733 8.533-17.067 17.067-29.867 21.333-42.667 4.267-4.267 8.534-17.067 8.534-17.067 4.266-12.8 4.266-21.333 0-34.133zm-102.4 46.933c-17.067 29.867-46.934 72.534-81.067 110.934-76.8 81.066-183.467 157.866-324.267 157.866s-247.466-76.8-324.266-157.866c-38.4-38.4-64-81.067-81.067-110.934-8.533-12.8-12.8-21.333-17.067-29.866 4.267-8.534 8.534-17.067 17.067-29.867 21.333-29.867 46.933-72.533 81.067-110.933 76.8-81.067 183.466-157.867 324.266-157.867s247.467 76.8 324.267 157.867c38.4 38.4 64 81.066 81.067 110.933 8.533 12.8 12.8 21.333 17.066 29.867-4.266 8.533-12.8 17.066-17.066 29.866z"/>
    <path
        d="M511.004 344.178c-76.8 0-145.066 68.266-145.066 153.6 0 85.333 68.266 153.6 145.066 153.6s145.067-68.267 145.067-153.6c0-85.334-68.267-153.6-145.067-153.6zm-230.4 153.6c0-128 102.4-238.934 230.4-238.934s230.4 110.934 230.4 238.934-102.4 238.933-230.4 238.933-230.4-110.933-230.4-238.933z"/>
</svg>
