<svg xmlns="http://www.w3.org/2000/svg" viewBox="0 0 48 48">
    <path
        d="M27 43.2c-1 0-2-.2-2.9-.6l-.1-.1-.2.1c-.9.4-1.9.6-2.9.6-1.8 0-3.5-.7-4.8-2l-7.4-7.4c-1.9-1.9-2.5-4.7-1.6-7.3l.1-.2L5.9 25c-2.3-2.3-3.5-5.3-3.5-8.5S3.7 10.3 5.9 8c2.3-2.3 5.3-3.5 8.5-3.5s6.3 1.3 8.5 3.5l1 1 1-1c2.3-2.3 5.3-3.5 8.5-3.5 6.7 0 12.1 5.4 12.1 12.1 0 3.2-1.3 6.3-3.5 8.5l-1.3 1.3.1.2c1 2.5.3 5.4-1.5 7.3l-7.4 7.4c-1.3 1.1-3 1.9-4.9 1.9zM13.1 24.7c-1 0-2 .4-2.7 1.1-1.7 1.7-1.7 4.6 0 6.3l7.4 7.4c.8.8 2 1.3 3.1 1.3 1.2 0 2.3-.5 3.1-1.3l.1-.1c1.5-1.5 1.4-3.9 0-5.3l-8.4-8.3c-.7-.7-1.6-1.1-2.6-1.1zm0-2.4c1.6 0 3.2.6 4.3 1.8l8.4 8.3c2.1 2.1 2.4 5.3.8 7.8l-.4.6h.7c1.2 0 2.4-.5 3.2-1.3l7.4-7.4c.8-.8 1.3-2 1.3-3.2 0-1.2-.5-2.3-1.3-3.1l-7.4-7.1-.3.3c-2.5 2.6-5 4-7.6 4.1h-.3c-3 0-5.2-1.8-6.2-2.8-.9-.9-.8-2.3 0-3.2l6.5-6.5-1-1c-1.8-1.8-4.3-2.8-6.9-2.8-2.6 0-5 1-6.8 2.8-1.8 1.8-2.8 4.3-2.8 6.8 0 2.6 1 5 2.8 6.8l1 1 .4-.2c1.1-1.1 2.6-1.7 4.2-1.7zm17-6.6c.3 0 .5.1.8.3.1.1.2.2.3.2l8.3 8 1-1c1.8-1.8 2.8-4.3 2.8-6.9 0-5.3-4.3-9.6-9.7-9.6-2.6 0-5.1 1-6.9 2.8l-9.1 9.1.3.3c.9.8 2.3 1.7 4.1 1.7h.2c2.2-.1 4.6-1.6 7-4.5.2-.2.5-.4.9-.4z"/>
</svg>
