<svg xmlns="http://www.w3.org/2000/svg" viewBox="0 0 48 48">
    <path
        d="M22.4 44.8c-1.6 0-2.9-1.3-2.9-2.9 0-1.6 1.3-2.9 2.9-2.9h3.3c.9 0 1.8.4 2.3 1.1l.2.2.3-.1c4.9-1.2 8.3-5.6 8.3-10.7V18.3c0-7-5.7-12.6-12.6-12.6s-12.6 5.7-12.6 12.6v9c0 1.6-1.3 2.9-2.9 2.9H6.9c-2.5 0-4.5-2-4.5-4.5v-3.3c0-2.5 2-4.5 4.5-4.5H9v-.4c.4-8 7-14.3 15-14.3s14.6 6.3 15 14.3v.4h2.1c2.5 0 4.5 2 4.5 4.5v3.3c0 2.5-2 4.5-4.5 4.5h-2v.4c-.4 6-4.7 11.1-10.5 12.3h-.2l-.1.2c-.4 1-1.5 1.7-2.6 1.7h-3.3zm16.7-17.1h2c1.1 0 2-.9 2-2v-3.3c0-1.1-.9-2-2-2h-2v7.3zM6.9 20.3c-1.1 0-2 .9-2 2v3.3c0 1.1.9 2 2 2h2v-7.3h-2z"/>
</svg>
