<svg xmlns="http://www.w3.org/2000/svg" viewBox="0 0 48 48">
    <path
        d="M41.4 11.3h-1.8l.4-.7c.6-1.1.9-2.1.9-3.1-.1-1.4-.9-2.6-2.1-3.3-1.1-.6-2.2-.9-3.3-.9-.6 0-1.2 0-1.7.1-2.9.7-6.5 3.2-9.3 6.5l-.4.4-.3-.5c-2.2-3.1-5.5-5.4-9.2-6.5l-1.8-.2c-1.1 0-2.2.3-3.3.9-1.2.8-2 2.2-2.1 3.6-.1 1 .2 2.1.8 3.1l.4.6H6.7c-1.1 0-2.1.4-2.8 1.2-.7.7-1.2 1.7-1.2 2.8v5.4c0 1.6 1 3 2.5 3.7l.3.1v16.3c0 2.2 1.8 3.9 3.9 3.9h29.3c2.2 0 3.9-1.8 3.9-3.9V26.1c0-.5 0-.8-.1-1.2l-.1-.4.4-.1c1.5-.6 2.6-2.1 2.5-3.7v-5.4c-.1-2.3-1.8-4-3.9-4zm-14.1-.8c1.8-2.1 4-3.6 6.7-4.6.3-.1.6-.2.9-.2.1 0 .2 0 .4.1.6 0 1.2.1 1.8.4.7.5 1 .9 1 1.4.2 1.4-1.2 2.9-1.8 3.5l-.1.1h-9.5l.6-.7zM7.4 21.8c-1 0-1.9-.6-1.9-1.6v-4.4c0-1 .8-1.9 1.9-1.9h15.4v7.8H7.4zm4.2-10.6c-1-1.1-1.6-2.3-1.7-3.6 0-.5.3-1 1-1.5.5-.3.9-.4 1.5-.4.5 0 1.1.1 1.6.3 2.6.9 5 2.5 6.7 4.6l.5.7-9.6-.1zm11.2 30.9H9.4c-.8 0-1.5-.7-1.5-1.5V25.8c0-.8.7-1.5 1.5-1.5l13.4.1v17.7zm17.5-1.5c-.2.8-.6 1.3-1.5 1.4H25.4V24.5h13.4c.8 0 1.5.7 1.5 1.5v14.6zm2.5-20l-.1.2c-.2.7-.8 1.2-1.5 1.2h-16v-8.1h16.1c.7 0 1.4.5 1.5 1.3v5.4z"/>
</svg>
