<svg xmlns="http://www.w3.org/2000/svg" viewBox="0 0 48 48">
    <path
        d="M44 15.9H4c-1.2 0-2.1 1-2.1 2.1v20c0 1.2 1 2.1 2.1 2.1h40c1.2 0 2.1-1 2.1-2.1V18c0-1.2-.9-2.1-2.1-2.1zm-1 20.2c.5 0 .9.3.9.9s-.3.9-.9.9-.9-.3-.9-.9.4-.9.9-.9zM5 19.9c-.5 0-.9-.3-.9-.9s.3-.9.9-.9.9.3.9.9-.4.9-.9.9zm38 0c-.5 0-.9-.3-.9-.9s.3-.9.9-.9.9.3.9.9-.4.9-.9.9zM4.1 22c.3.1.5.2.9.2 1.8 0 3.1-1.3 3.1-3.1 0-.3-.1-.6-.2-.9H40c-.1.3-.2.5-.2.9 0 1.8 1.3 3.1 3.1 3.1.3 0 .6-.1.9-.2v12c-.3-.1-.5-.2-.9-.2-1.8 0-3.1 1.3-3.1 3.1 0 .3.1.6.2.9H8c.1-.3.2-.5.2-.9 0-1.8-1.3-3.1-3.1-3.1-.3 0-.6.1-.9.2V22zM5 36.1c.5 0 .9.3.9.9s-.4.9-.9.9-.9-.4-.9-.9.4-.9.9-.9zm6-26h26c.7 0 1.1-.5 1.1-1.1s-.4-1.1-1.1-1.1H11c-.7 0-1.1.5-1.1 1.1s.4 1.1 1.1 1.1z"/>
    <path
        d="M11 22.1h2c.7 0 1.1-.5 1.1-1.1s-.5-1.1-1.1-1.1h-2c-.7 0-1.1.5-1.1 1.1s.4 1.1 1.1 1.1zm-4-8h34c.7 0 1.1-.5 1.1-1.1s-.5-1.1-1.1-1.1H7c-.7 0-1.1.5-1.1 1.1s.4 1.1 1.1 1.1zm28 22h2c.7 0 1.1-.5 1.1-1.1s-.5-1.1-1.1-1.1h-2c-.7 0-1.1.5-1.1 1.1s.4 1.1 1.1 1.1zm-9.4-4.5c.4-.2.6-.7.6-1.3 0-.3 0-.6-.1-.7-.2-.3-.3-.4-.5-.5-.1 0-.2-.1-.2-.1-.1-.1-.2-.1-.3-.2-.1-.1-.2-.1-.3-.1-.1 0-.1 0-.2-.1l-.2-.1V32h.1c.4 0 .8-.2 1.1-.4z"/>
    <path
        d="M24 36.1c4.5 0 8.1-3.6 8.1-8.1s-3.6-8.1-8.1-8.1-8.1 3.6-8.1 8.1 3.6 8.1 8.1 8.1zm.3-13.1c.4 0 .7.1 1 .2.4.1.7.3.9.5.3.2.4.4.6.7.2.2.2.6.2 1h-1.3c0-.5-.1-.8-.4-1.1-.3-.3-.6-.4-1-.4h-.1V27h.1c.4.1.7.2 1.1.4.1 0 .2.1.2.1.3.1.5.2.8.5.3.2.5.5.7.8.2.3.3.7.3 1.1.2.5.1.9-.1 1.2-.2.4-.4.7-.7.9-.2.2-.4.3-.7.5-.1 0-.2.1-.2.1h-.2c-.3.1-.6.1-.9.1h-.1v1H24V33h-.1c-.4 0-.7-.1-1-.2h-.2c-.3-.1-.5-.2-.7-.4-.1-.1-.2-.1-.2-.2-.3-.3-.5-.6-.7-1-.2-.3-.2-.7-.2-1.1h1.3c0 .6.2 1.1.4 1.4.3.3.7.5 1.3.5h.1v-3.5h-.1c-.4-.1-.6-.2-1-.4-.4-.1-.7-.3-1-.5-.3-.2-.5-.5-.7-.8-.2-.3-.3-.7-.3-1.2 0-.4.1-.8.2-1.1.1-.2.3-.5.7-.7.3-.2.6-.4 1-.5.1 0 .2-.1.3-.1.2-.1.4-.1.7-.1h.1v-1h.5v.9h-.1z"/>
    <path
        d="M22.5 24.5c-.3 0-.4.7-.4 1 0 .2 0 .4.1.7.1.2.2.3.3.4.1.1.3.2.5.3.1 0 .1.1.2.1s.1 0 .2.1l.2.2v-3.1h-.1c-.5 0-.8.1-1 .3z"/>
</svg>
