<?xml version="1.0" standalone="no"?><!DOCTYPE svg PUBLIC "-//W3C//DTD SVG 1.1//EN" "http://www.w3.org/Graphics/SVG/1.1/DTD/svg11.dtd"><svg t="1627251576423" class="icon" viewBox="0 0 1024 1024" version="1.1" xmlns="http://www.w3.org/2000/svg" p-id="6135" xmlns:xlink="http://www.w3.org/1999/xlink" width="200" height="200"><defs><style type="text/css">@font-face { font-family: feedback-iconfont; src: url("//at.alicdn.com/t/font_1031158_1uhr8ri0pk5.eot?#iefix") format("embedded-opentype"), url("//at.alicdn.com/t/font_1031158_1uhr8ri0pk5.woff2") format("woff2"), url("//at.alicdn.com/t/font_1031158_1uhr8ri0pk5.woff") format("woff"), url("//at.alicdn.com/t/font_1031158_1uhr8ri0pk5.ttf") format("truetype"), url("//at.alicdn.com/t/font_1031158_1uhr8ri0pk5.svg#iconfont") format("svg"); }
</style></defs><path d="M968.590222 727.808a9.130667 9.130667 0 0 0-11.776-5.489778l-69.944889 25.486222V132.721778a77.653333 77.653333 0 0 0-77.710222-77.738667H214.869333a77.653333 77.653333 0 0 0-77.710222 77.738667V747.804444l-70.058667-25.486222a9.159111 9.159111 0 0 0-12.231111 8.561778v68.124444c0 3.754667 2.417778 7.196444 6.058667 8.561778L499.484444 967.111111c8.106667 2.986667 16.896 2.986667 25.031112 0l438.613333-159.431111a9.216 9.216 0 0 0 6.058667-8.561778v-68.124444a9.955556 9.955556 0 0 0-0.568889-3.185778z m-456.561778 156.330667l-292.579555-106.382223V137.244444h585.130667v640.455112l-292.551112 106.410666z m169.813334-600.576h-62.293334a9.016889 9.016889 0 0 0-8.106666 5.034666l-96.796445 192.910223h-3.783111l-96.796444-192.910223a9.130667 9.130667 0 0 0-8.106667-5.034666h-63.658667a8.533333 8.533333 0 0 0-4.352 1.137777 9.102222 9.102222 0 0 0-3.640888 12.344889l118.727111 218.993778h-65.137778a9.159111 9.159111 0 0 0-9.130667 9.102222v31.004445c0 5.034667 4.096 9.130667 9.130667 9.130666h86.869333v44.572445h-86.869333a9.159111 9.159111 0 0 0-9.130667 9.159111v30.947556c0 5.034667 4.096 9.159111 9.130667 9.159111h86.869333v72.448c0 5.034667 4.124444 9.159111 9.130667 9.159111h57.031111a9.159111 9.159111 0 0 0 9.159111-9.159111v-72.561778h87.182222a9.159111 9.159111 0 0 0 9.159111-9.159111v-30.947556a9.159111 9.159111 0 0 0-9.159111-9.159111H550.115556V565.191111h87.182222a9.159111 9.159111 0 0 0 9.159111-9.130667v-31.004444a9.159111 9.159111 0 0 0-9.159111-9.102222H571.448889l118.499555-218.993778c0.682667-1.365333 1.137778-2.844444 1.137778-4.323556a9.329778 9.329778 0 0 0-9.244444-9.045333z" p-id="6136"></path></svg>