<svg id="图层_1" data-name="图层 1" xmlns="http://www.w3.org/2000/svg" viewBox="0 0 40.1 31.8">
    <defs>
        <style/>
    </defs>
    <g id="图层_2" data-name="图层 2">
        <g id="图层_1-2" data-name="图层 1-2">
            <path class="cls-1"
                  d="M37.25 6.6H7.65a5.16 5.16 0 00-5.2 5.12V33.2a5.16 5.16 0 005.12 5.2h29.18a5.94 5.94 0 005.8-5.8V11.8a5.3 5.3 0 00-5.3-5.2zM7.65 9.4h29.6a2.43 2.43 0 012.4 2.4v1.6H5.25v-1.6a2.37 2.37 0 012.34-2.4zm28.7 26.2H7.65a2.43 2.43 0 01-2.4-2.4V21.8h34.4v10.5a3.33 3.33 0 01-3.3 3.3z"
                  transform="translate(-2.45 -6.6)"/>
            <path
                d="M35.65 26.2h-6.4a1.1 1.1 0 00-1 .6l-1.7 3a1.18 1.18 0 00.38 1.62 1.15 1.15 0 00.62.18H34a.93.93 0 001-.6l1.7-3a1.21 1.21 0 00-.46-1.65 1.29 1.29 0 00-.59-.15z"
                transform="translate(-2.45 -6.6)"/>
        </g>
    </g>
</svg>
