<svg xmlns="http://www.w3.org/2000/svg" viewBox="0 0 44 44">
    <path
        d="M37.4 6h-31C3.6 5.8 1.2 8 1 10.9v3.6c.1 2.8 2.5 5 5.4 4.9h.3c.4 0 .8-.1 1.1-.4v14.2c.1 2.8 2.5 5 5.4 4.9h17.5c2.8.1 5.2-2.1 5.4-4.9V18.9c.3.3.7.5 1.1.5h.3c2.8.1 5.2-2.1 5.4-4.9v-3.6c-.3-2.9-2.7-5-5.5-4.9zm-18.3 8.1h13.7v19c0 1.3-1.1 2.2-2.4 2.2H19.1V14.1zm-4.8 21.2H13c-1.3 0-2.3-.9-2.4-2.2v-19h3.6l.1 21.2zM7.7 17c-.3-.3-.7-.5-1.1-.5h-.2c-1.3 0-2.3-.9-2.4-2.2v-3.6c0-1.3 1.1-2.2 2.4-2.2h31c1.3 0 2.3.9 2.4 2.2v3.6c0 1.3-1.1 2.2-2.4 2.2h-.3c-.4 0-.8.1-1.1.4v-5.6H7.7V17z"/>
    <path d="M25 32.6l4.5-1v-8.8l-4.5 1z"/>
</svg>
