<svg class="icon" viewBox="0 0 1024 1024" xmlns="http://www.w3.org/2000/svg" width="48" height="48">
    <defs>
        <style/>
    </defs>
    <path
        d="M852.144 937.162H285.237c-62.615 0-113.381-50.764-113.381-113.377V710.409h56.69v113.376c0 31.306 25.385 56.688 56.69 56.688h566.908c31.307 0 56.69-25.383 56.69-56.688V200.213c0-31.306-25.384-56.688-56.69-56.688H285.237c-31.307 0-56.69 25.382-56.69 56.688v113.376h-56.691V200.213c0-62.612 50.766-113.377 113.38-113.377h566.908c62.616 0 113.382 50.765 113.382 113.377v623.572c0 62.613-50.766 113.377-113.382 113.377zM606.752 335.07c-11.045-11.072-11.045-29.036 0-40.08 11.072-11.072 29.037-11.072 40.11 0l195.565 195.558c5.897 5.897 8.415 13.73 8.029 21.452.386 7.722-2.132 15.556-8.029 21.48L646.862 729.04c-11.072 11.07-29.037 11.07-40.109 0-11.045-11.073-11.045-29.037 0-40.082l148.62-148.613H86.82c-15.64 0-28.346-12.678-28.346-28.345 0-15.64 12.706-28.345 28.346-28.345h668.55L606.752 335.07z"/>
</svg>
