<svg data-name="图层 1" xmlns="http://www.w3.org/2000/svg" viewBox="0 0 31.93 32.12">
    <path
        d="M4.98 7.62a16.56 16.56 0 014.21-3.61 13.5 13.5 0 017.55-1.94h.11a1.08 1.08 0 001.13-1 1 1 0 00-.92-1h-.08a17 17 0 00-9 2.05 17.7 17.7 0 00-4.8 4.2 19.46 19.46 0 00-2.7 5.6 16 16 0 00-.36 6.09 16.5 16.5 0 002 6c.3.5.61.9.9 1.4l-1-.2a1 1 0 00-.9.2 2.08 2.08 0 00-.5.71v.1a1.14 1.14 0 00.9 1.29l4.6.9h.2a1.15 1.15 0 001.1-.9v-.1a.75.75 0 00-.2-.79c-.2-.21-.3-.5-.6-.61h-.2a11.44 11.44 0 01-2.44-3 16.39 16.39 0 01-1.8-5.2 13.76 13.76 0 01.4-5.3 17.49 17.49 0 012.4-4.89z"/>
    <path class="cls-1"
          d="M14.85 20.13h.13v2.39a1.06 1.06 0 00.9 1h.3a.89.89 0 00.9-.89v-2.4h.2v-.22h3.7c.5 0 1-.39.9-.89v-.21a.9.9 0 00-.9-.9h-3.7v-.2h-.2v-2.3h3.9a1.11 1.11 0 001.11-1.1v-.4a1 1 0 00-.89-1.09h-4.06l3-2.8a1.23 1.23 0 00.1-1.7 1.26 1.26 0 00-1.7-.1l-2.56 2.3-2.3-2.4a1.204 1.204 0 00-1.8 1.6l2.9 3.1h-3.8a1 1 0 00-1.09.89v.41a1 1 0 00.89 1.1h4.2v2.3h-.19v.2h-3.81a.89.89 0 00-.89.9V19a.89.89 0 00.89.9h3.81z"/>
    <path class="cls-1"
          d="M31.85 14.01a18 18 0 00-2-6c-.5-.8-1-1.5-1.5-2.2l1 .2h.2a1.34 1.34 0 00.6-.2 2 2 0 00.5-.69v-.11a.82.82 0 00-.2-.8 2.08 2.08 0 00-.71-.5l-4.76-.89a1.14 1.14 0 00-1.29.9v.1a.76.76 0 00.2.8.93.93 0 00.6.5c0 .1.1.1.1.2a15.37 15.37 0 013.3 3.8 16.57 16.57 0 011.8 5.2 13.79 13.79 0 01-.4 5.31 16.68 16.68 0 01-2.31 4.79 12.75 12.75 0 01-4.1 3.6 14.13 14.13 0 01-4.6 1.71 12.38 12.38 0 01-4.7 0 .76.76 0 00-.8.2.94.94 0 00-.4.7.77.77 0 00.2.8 1 1 0 00.7.4 13.72 13.72 0 002.8.3 23 23 0 002.6-.21 16.38 16.38 0 005.3-1.91 16.1 16.1 0 004.8-4.2 13.89 13.89 0 002.7-5.5 22.18 22.18 0 00.37-6.3z"/>
</svg>
