<svg class="icon" viewBox="0 0 1024 1024" xmlns="http://www.w3.org/2000/svg" width="200" height="200">
    <defs>
        <style/>
    </defs>
    <path
        d="M0 582.4c0 70.4 57.6 128 128 128V448C57.6 448 0 505.6 0 582.4zM896 448v262.4c70.4 0 128-57.6 128-128S966.4 448 896 448zM294.4 704s76.8-57.6 89.6-153.6c0-32-6.4-102.4-96-102.4-32 0-57.6 12.8-83.2 25.6v57.6c19.2-19.2 44.8-32 70.4-32 25.6 0 44.8 12.8 44.8 44.8 0 12.8-6.4 25.6-12.8 38.4-6.4 12.8-19.2 25.6-38.4 44.8L192 704v64h192v-64h-89.6zM396.8 704H512v64h64v-64h32v-64h-32V448h-64L396.8 640v64zM512 576v64h-38.4l38.4-64zM640 320v256h64V454.4c0-25.6 64-25.6 64 0V576h64V448c0-44.8-44.8-70.4-83.2-64-38.4 0-44.8 12.8-44.8 12.8V320h-64zM806.4 793.6c-51.2 51.2-115.2 96-192 115.2-19.2-25.6-51.2-44.8-89.6-44.8-57.6 0-102.4 38.4-102.4 76.8 0 44.8 44.8 76.8 102.4 76.8 44.8 0 83.2-19.2 96-51.2C710.4 947.2 793.6 896 851.2 832c12.8-12.8 12.8-32 0-44.8-6.4-6.4-32-6.4-44.8 6.4z"/>
    <path
        d="M102.4 352c-6.4 0-12.8 0-12.8-6.4-19.2-6.4-25.6-25.6-19.2-44.8 115.2-211.2 384-294.4 608-192 83.2 38.4 153.6 96 198.4 166.4 6.4 6.4 12.8 19.2 12.8 25.6 12.8 19.2 6.4 38.4-6.4 44.8-12.8 6.4-32 6.4-44.8-12.8 0-6.4-6.4-12.8-12.8-19.2-38.4-64-102.4-115.2-172.8-147.2-192-83.2-422.4-12.8-524.8 166.4-6.4 12.8-19.2 19.2-25.6 19.2z"/>
</svg>
