<svg class="icon" viewBox="0 0 1025 1024" xmlns="http://www.w3.org/2000/svg" width="200.195" height="200">
    <defs>
        <style/>
    </defs>
    <path
        d="M533.205 247.84c-11.436-13.315-30.185-13.315-41.62 0l-342.38 399.573c-11.436 13.32-6.435 24.257 11.194 24.257h128c17.622 0 31.996 14.38 31.996 32.008v256.048c0 17.626 14.378 32.004 32.001 32.004H672.4c17.628 0 31.996-14.379 31.996-32.004V703.68c0-17.63 14.376-32.008 32.005-32.008h128c17.62 0 22.624-10.938 11.185-24.257L533.205 247.84zM192.396 159.574h640.002c35.376 0 64-28.634 64-64.012 0-35.383-28.624-64.012-64-64.012H192.396c-35.371 0-63.998 28.63-63.998 64.012 0 35.378 28.626 64.012 63.998 64.012z"/>
</svg>
