<svg class="icon" viewBox="0 0 1024 1024" xmlns="http://www.w3.org/2000/svg" width="200" height="200">
    <defs>
        <style/>
    </defs>
    <path
        d="M1000.568 887.432L890.006 776.316c-18.147-18.146-42.842-25.73-66.479-22.796C887.623 674.08 926 573.022 926 463 926 207.292 718.707 0 463 0 207.292 0 0 207.292 0 463s207.292 463 463 463c110.272 0 211.536-38.554 291.059-102.912-2.896 23.604 4.691 48.248 22.809 66.366l110.564 111.115c31.242 31.241 81.895 31.241 113.137 0 31.242-31.242 31.242-81.895-.001-113.137zm-388.512-71.497C564.889 835.885 514.739 846 463 846c-51.74 0-101.89-10.115-149.056-30.065-45.598-19.286-86.566-46.913-121.766-82.112-35.2-35.2-62.827-76.168-82.113-121.766C90.115 564.89 80 514.74 80 463s10.115-101.89 30.065-149.057c19.286-45.598 46.913-86.565 82.113-121.765s76.167-62.827 121.766-82.113C361.11 90.115 411.259 80 463 80c51.74 0 101.889 10.115 149.056 30.065 45.599 19.286 86.566 46.913 121.766 82.113s62.827 76.167 82.113 121.766C835.885 361.11 846 411.26 846 463s-10.115 101.89-30.065 149.057c-19.286 45.598-46.913 86.565-82.113 121.766-35.2 35.198-76.168 62.825-121.766 82.112z"
        fill="#999"/>
</svg>
