<svg xmlns="http://www.w3.org/2000/svg" viewBox="0 0 48 48">
    <path
        d="M18.6 28.3c-.2.1-.4.1-.6.1-.5 0-.9-.3-1.2-.7l-.1-.2-3.7-7.8v-.3c0-.4.3-.6.6-.6.1 0 .3 0 .4.1l4.3 3c.3.2.7.3 1.1.3.2 0 .5 0 .7-.1l20.2-8.9c-3.6-4.2-9.6-7-16.4-7-11 0-20 7.4-20 16.5 0 4.9 2.7 9.4 6.9 12.4.3.2.6.6.6 1.1 0 .1 0 .3-.1.4-.3 1.2-.9 3.3-.9 3.3 0 .1-.1.3-.1.5 0 .4.3.6.6.6.1 0 .3 0 .4-.1l4.4-2.5c.3-.2.7-.3 1.1-.3.2 0 .4 0 .6.1 2 .6 4.3.9 6.5.9 11 0 20-7.4 20-16.5 0-2.7-.8-5.4-2.3-7.6l-23 13.1v.2z"
        fill="#09bb07"/>
</svg>
